# Blender v2.92.0 OBJ File: 'azucar.blend'
# www.blender.org
mtllib azucar.mtl
o Food_Baking_Sugar_Cube
v 0.098669 -0.000331 -0.043853
v 0.098669 -0.000331 0.043853
v -0.098669 -0.000331 0.043853
v -0.098669 -0.000331 -0.043853
v 0.098669 0.306640 -0.043853
v 0.098669 0.306640 0.043853
v -0.098669 0.306640 0.043853
v -0.098669 0.306640 -0.043853
vt 0.489923 0.173494
vt 0.489923 0.002287
vt 0.180454 0.002287
vt 0.180454 0.173494
vt 0.483074 0.972322
vt 0.184735 0.972322
vt 0.184735 0.832366
vt 0.483073 0.832366
vt 0.161957 0.192354
vt 0.161957 0.803771
vt 0.015013 0.803771
vt 0.015013 0.192354
vt 0.996365 0.192354
vt 0.996365 0.803771
vt 0.677965 0.803771
vt 0.677965 0.192354
vt 0.656391 0.192354
vt 0.656391 0.803771
vt 0.510164 0.803771
vt 0.510164 0.192354
vt 0.183955 0.803770
vt 0.183955 0.192354
vt 0.491826 0.192354
vt 0.491826 0.803771
vn 0.0000 -1.0000 0.0000
vn 0.0000 1.0000 0.0000
vn 1.0000 0.0000 0.0000
vn -0.0000 -0.0000 1.0000
vn -1.0000 -0.0000 -0.0000
vn 0.0000 0.0000 -1.0000
usemtl Food_Baking_Sugar
s off
f 1/1/1 2/2/1 3/3/1 4/4/1
f 5/5/2 8/6/2 7/7/2 6/8/2
f 1/9/3 5/10/3 6/11/3 2/12/3
f 2/13/4 6/14/4 7/15/4 3/16/4
f 3/17/5 7/18/5 8/19/5 4/20/5
f 5/21/6 1/22/6 4/23/6 8/24/6
