# Blender v2.92.0 OBJ File: 'basura.blend'
# www.blender.org
mtllib basura.mtl
o garbage_bag_1_Cube
v 0.107792 0.442934 -0.093921
v 0.159755 0.002219 -0.181077
v 0.089480 0.488503 0.184007
v 0.131949 0.003415 0.189204
v -0.175284 0.409203 -0.110100
v -0.229993 0.005222 -0.156067
v -0.190540 0.515376 0.161152
v -0.230481 0.023619 0.210963
v -0.196415 -0.010366 0.091816
v 0.098636 0.465719 0.045043
v -0.181384 0.492591 0.022188
v 0.167827 0.009203 0.041379
v -0.067821 -0.011444 -0.162360
v -0.050530 0.501940 0.172580
v -0.056761 0.004345 0.203437
v -0.032219 0.456370 -0.105348
v -0.003429 0.014245 0.007196
v -0.068550 0.618344 0.039855
v 0.230808 0.190748 -0.218184
v -0.205561 0.190748 0.218184
v 0.230808 0.190748 0.218184
v -0.205561 0.190748 -0.218184
v 0.230808 0.190748 0.000000
v -0.300165 0.215953 0.066037
v 0.012623 0.190748 -0.218184
v 0.012623 0.190748 0.218184
v 0.195564 0.033018 -0.188804
v 0.218792 0.050694 0.244736
v -0.269135 0.052041 -0.230767
v 0.245531 0.055008 0.025475
v -0.291413 0.053025 0.096082
v -0.039181 0.039620 -0.235457
v -0.030939 0.051387 0.255344
v -0.269499 0.065751 0.260953
v 0.017454 0.550880 0.114453
v -0.128768 0.567786 0.082660
v -0.361870 0.559873 -0.005446
v -0.091002 0.607068 0.047159
v -0.332958 0.470899 -0.003088
v -0.072939 0.551482 0.048632
v 0.166020 0.604726 0.005615
v -0.043035 0.537288 0.052914
v 0.131703 0.691049 0.011375
v -0.064475 0.591218 0.056512
vt 1.002201 0.134593
vt 0.984251 0.459571
vt 0.896352 0.458815
vt 0.872329 0.162039
vt 0.386242 0.000614
vt 0.368701 0.236896
vt 0.312977 0.240080
vt 0.248599 0.012468
vt 0.799063 0.261536
vt 0.750323 0.215417
vt 0.698070 0.130769
vt 0.777553 0.167867
vt 0.558923 0.058337
vt 0.657553 0.356792
vt 0.501638 0.345796
vt 0.114614 0.357604
vt 0.223158 0.129116
vt 0.324295 0.312619
vt 0.496607 0.712882
vt 0.404579 0.542218
vt 0.528166 0.533131
vt 0.214123 0.579397
vt 0.309455 0.873391
vt 0.154728 0.846403
vt 0.877575 0.681324
vt 0.695956 0.612294
vt 0.858491 0.481173
vt 0.113314 0.584443
vt 0.000000 0.819416
vt 0.386839 0.884085
vt 0.531567 0.872516
vt 0.018594 0.075510
vt 0.019073 0.362035
vt 0.780787 0.456100
vt 0.698070 0.362568
vt 0.780787 0.261537
vt 0.900057 0.130768
vt 0.799064 0.000001
vt 0.900057 0.000000
vt 0.615395 0.640225
vt 0.642411 0.869315
vt 0.896660 0.881476
vt 0.698173 0.743030
vt 0.647316 0.528896
vt 0.458234 0.065538
vt 0.345723 0.334800
vt 0.272166 0.495693
vt 0.314931 0.574350
vt 0.348767 0.467301
vt 0.527125 0.481173
vt 0.988484 0.713700
vt 1.000000 0.925653
vt 0.115178 0.495693
vt 0.000000 0.495693
vt 0.005968 0.957694
vt 0.159642 0.974236
vt 0.974691 0.494216
vt 0.314931 1.000000
vt 0.345723 0.451477
vt 0.698070 0.481173
vt 0.524889 0.481944
vt 0.695956 0.634823
vt 0.383128 0.677809
vt 0.361479 0.486330
vt 0.527886 0.936637
vt 0.330657 0.495693
vt 0.330657 0.709052
vt 0.314931 0.503742
vt 0.119453 0.075748
vt 0.071778 0.000000
vt 0.659612 0.051136
vt 0.851914 0.446471
vt 0.780787 0.358127
vt 0.851914 0.261537
vt 0.743916 0.869496
vt 0.736649 0.077090
vt 0.684993 0.481173
vt 0.681800 0.936637
vt 0.345723 0.688262
vt 1.000000 0.523153
vt 0.372427 0.888730
vt 0.512860 0.000000
vt 0.698070 0.261537
vn 0.1848 0.0340 -0.9822
vn -0.2145 -0.0201 -0.9765
vn -0.7435 0.5877 -0.3190
vn -0.4546 0.8471 0.2752
vn 0.0024 0.5487 0.8360
vn -0.0238 0.9833 -0.1801
vn -0.4718 0.2663 0.8405
vn 0.0035 0.1849 0.9828
vn -0.9782 0.1705 0.1180
vn -0.5581 0.5499 -0.6213
vn -0.4699 0.3464 -0.8119
vn 0.0613 -0.9975 0.0338
vn 0.1512 -0.9502 0.2726
vn 0.0038 -0.9268 0.3756
vn 0.7433 0.6600 -0.1092
vn 0.7271 0.2442 0.6417
vn 0.9714 0.2335 -0.0421
vn 0.0474 0.2218 -0.9739
vn 0.4974 0.7344 -0.4618
vn 0.7039 0.1371 -0.6969
vn 0.3112 -0.8479 -0.4292
vn -0.0131 -0.9617 -0.2738
vn -0.5834 0.5877 0.5605
vn 0.0330 0.6594 -0.7510
vn -0.2361 -0.9690 0.0729
vn -0.3785 -0.8991 -0.2200
vn -0.3207 -0.8764 0.3591
vn 0.5125 0.5777 0.6353
vn 0.4059 0.8543 0.3246
vn 0.5855 -0.4072 0.7009
vn 0.0184 -0.2960 0.9550
vn 0.0290 -0.4049 -0.9139
vn -0.6489 -0.3020 -0.6984
vn -0.9043 -0.4065 0.1301
vn -0.6636 -0.1541 0.7320
vn 0.6605 -0.4576 -0.5952
vn 0.8995 -0.4341 -0.0488
vn 0.2740 -0.9617 0.0074
usemtl garbage_bag
s off
f 37/1/1 38/2/1 40/3/1 39/4/1
f 41/5/2 42/6/2 44/7/2 43/8/2
s 1
f 11/9/3 36/10/4 14/11/5 18/12/6
f 14/13/5 20/14/7 26/15/8
f 24/16/9 5/17/10 22/18/11
f 17/19/12 4/20/13 15/21/14
f 10/22/15 21/23/16 23/24/17
f 25/25/18 1/26/19 19/27/20
f 1/28/19 23/24/17 19/29/20
f 2/30/21 17/19/12 13/31/22
f 7/32/23 24/16/9 20/33/7
f 16/34/24 11/35/3 18/36/6
f 16/37/24 10/38/15 1/39/19
f 13/31/22 9/40/25 6/41/26
f 22/42/11 16/43/24 25/25/18
f 9/40/25 15/21/14 8/44/27
f 3/45/28 26/15/8 21/46/16
f 10/22/15 35/47/29 3/48/28
f 28/49/30 26/15/8 33/50/31
f 22/42/11 32/51/32 29/52/33
f 20/33/7 31/53/34 34/54/35
f 27/55/36 23/24/17 30/56/37
f 25/25/18 27/57/36 32/51/32
f 30/56/37 21/23/16 28/58/30
f 24/16/9 29/59/33 31/53/34
f 33/50/31 20/14/7 34/60/35
f 33/61/31 8/44/27 15/21/14
f 31/62/34 6/41/26 9/40/25
f 12/63/38 28/64/30 4/20/13
f 32/65/32 2/30/21 13/31/22
f 27/66/36 12/67/38 2/68/21
f 8/44/27 31/62/34 9/40/25
f 6/41/26 32/65/32 13/31/22
f 4/20/13 33/61/31 15/21/14
f 11/69/3 7/32/23 36/70/4
f 14/13/5 7/71/23 20/14/7
f 24/16/9 11/69/3 5/17/10
f 17/19/12 12/63/38 4/20/13
f 10/22/15 3/48/28 21/23/16
f 25/25/18 16/43/24 1/26/19
f 1/28/19 10/22/15 23/24/17
f 2/30/21 12/63/38 17/19/12
f 7/32/23 11/69/3 24/16/9
f 16/72/24 5/73/10 11/74/3
f 16/37/24 18/12/6 10/38/15
f 13/31/22 17/19/12 9/40/25
f 22/42/11 5/75/10 16/43/24
f 9/40/25 17/19/12 15/21/14
f 3/45/28 14/13/5 26/15/8
f 10/38/15 18/12/6 14/11/5 35/76/29
f 28/49/30 21/46/16 26/15/8
f 22/42/11 25/25/18 32/51/32
f 20/33/7 24/16/9 31/53/34
f 27/55/36 19/29/20 23/24/17
f 25/25/18 19/27/20 27/57/36
f 30/56/37 23/24/17 21/23/16
f 24/16/9 22/18/11 29/59/33
f 33/50/31 26/15/8 20/14/7
f 33/61/31 34/77/35 8/44/27
f 31/62/34 29/78/33 6/41/26
f 12/63/38 30/79/37 28/64/30
f 32/51/32 27/57/36 2/80/21
f 27/81/36 30/79/37 12/63/38
f 8/44/27 34/77/35 31/62/34
f 6/41/26 29/78/33 32/65/32
f 4/20/13 28/64/30 33/61/31
f 3/45/28 35/82/29 14/13/5
f 36/10/4 7/83/23 14/11/5
