# Blender v2.92.0 OBJ File: 'bebida.blend'
# www.blender.org
mtllib bebida.mtl
o Drink_Can_Soda_2_Cylinder
v 0.000000 0.001026 -0.052379
v 0.000000 0.153426 -0.052379
v 0.033157 0.001026 -0.040125
v 0.033157 0.153426 -0.040125
v 0.050800 0.001026 -0.009096
v 0.050800 0.153426 -0.009096
v 0.044673 0.001026 0.026190
v 0.044673 0.153426 0.026190
v 0.017643 0.001026 0.049221
v 0.017643 0.153426 0.049221
v -0.017643 0.001026 0.049221
v -0.017643 0.153426 0.049221
v -0.044673 0.001026 0.026190
v -0.044673 0.153426 0.026190
v -0.050800 0.001026 -0.009096
v -0.050800 0.153426 -0.009096
v -0.033157 0.001026 -0.040125
v -0.033157 0.153426 -0.040125
v 0.000000 0.025845 -0.059779
v 0.000000 0.128607 -0.059779
v 0.037841 0.128607 -0.045793
v 0.037841 0.025845 -0.045793
v 0.057976 0.128607 -0.010380
v 0.057976 0.025845 -0.010380
v 0.050983 0.128607 0.029889
v 0.050983 0.025845 0.029889
v 0.020135 0.128607 0.056173
v 0.020135 0.025845 0.056173
v -0.020135 0.128607 0.056173
v -0.020135 0.025845 0.056173
v -0.050983 0.128607 0.029889
v -0.050983 0.025845 0.029889
v -0.057976 0.128607 -0.010380
v -0.057976 0.025845 -0.010380
v -0.037841 0.128607 -0.045793
v -0.037841 0.025845 -0.045793
vt 0.884946 0.463233
vt 0.884946 0.575040
vt 0.775789 0.575040
vt 0.775789 0.463233
vt 0.665568 0.575040
vt 0.665568 0.463233
vt 0.554979 0.575040
vt 0.554979 0.463233
vt 0.445323 0.575040
vt 0.445323 0.463233
vt 0.336364 0.575040
vt 0.336364 0.463233
vt 0.226708 0.575040
vt 0.226708 0.463233
vt 0.116119 0.575040
vt 0.116119 0.463233
vt 0.676438 0.969430
vt 0.803713 0.923106
vt 0.871434 0.805809
vt 0.847915 0.672424
vt 0.744159 0.585363
vt 0.608717 0.585363
vt 0.504961 0.672424
vt 0.481442 0.805809
vt 0.549164 0.923106
vt 0.994102 0.463234
vt 0.994102 0.575040
vt 0.005898 0.575040
vt 0.005898 0.463233
vt 0.219471 0.976113
vt 0.347260 0.929601
vt 0.415256 0.811830
vt 0.391641 0.677905
vt 0.287466 0.590491
vt 0.151475 0.590491
vt 0.047300 0.677905
vt 0.023686 0.811830
vt 0.091681 0.929601
vt 0.116119 -0.000142
vt 0.116119 0.111665
vt 0.005898 0.111665
vt 0.005898 -0.000142
vt 0.994102 -0.000141
vt 0.994102 0.111665
vt 0.884946 0.111665
vt 0.884946 -0.000142
vt 0.226708 -0.000142
vt 0.226708 0.111665
vt 0.336364 -0.000142
vt 0.336364 0.111665
vt 0.445323 -0.000142
vt 0.445323 0.111665
vt 0.554979 -0.000142
vt 0.554979 0.111665
vt 0.665568 -0.000142
vt 0.665568 0.111665
vt 0.775790 -0.000142
vt 0.775790 0.111665
vn 0.3339 0.2693 -0.9033
vn 0.8378 0.2669 -0.4763
vn 0.9497 0.2661 0.1649
vn 0.6248 0.2682 0.7333
vn -0.0000 0.2698 0.9629
vn -0.6248 0.2682 0.7333
vn -0.9497 0.2661 0.1649
vn 0.0000 1.0000 0.0000
vn -0.3339 0.2693 -0.9033
vn -0.8378 0.2669 -0.4763
vn 0.0000 -1.0000 0.0000
vn -0.8378 -0.2669 -0.4763
vn -0.8693 0.0000 -0.4943
vn -0.3339 -0.2693 -0.9033
vn -0.3467 0.0000 -0.9380
vn -0.9497 -0.2661 0.1649
vn -0.9853 0.0000 0.1711
vn -0.6248 -0.2682 0.7333
vn -0.6486 0.0000 0.7612
vn -0.0000 -0.2698 0.9629
vn -0.0000 0.0000 1.0000
vn 0.6248 -0.2682 0.7333
vn 0.6486 0.0000 0.7612
vn 0.9497 -0.2661 0.1649
vn 0.9853 0.0000 0.1711
vn 0.8378 -0.2669 -0.4763
vn 0.8693 0.0000 -0.4943
vn 0.3339 -0.2693 -0.9033
vn 0.3467 0.0000 -0.9380
usemtl Drink_Can_Soda_2
s off
f 20/1/1 2/2/1 4/3/1 21/4/1
f 21/4/2 4/3/2 6/5/2 23/6/2
f 23/6/3 6/5/3 8/7/3 25/8/3
f 25/8/4 8/7/4 10/9/4 27/10/4
f 27/10/5 10/9/5 12/11/5 29/12/5
f 29/12/6 12/11/6 14/13/6 31/14/6
f 31/14/7 14/13/7 16/15/7 33/16/7
f 4/17/8 2/18/8 18/19/8 16/20/8 14/21/8 12/22/8 10/23/8 8/24/8 6/25/8
f 35/26/9 18/27/9 2/2/9 20/1/9
f 33/16/10 16/15/10 18/28/10 35/29/10
f 1/30/11 3/31/11 5/32/11 7/33/11 9/34/11 11/35/11 13/36/11 15/37/11 17/38/11
f 15/39/12 34/40/12 36/41/12 17/42/12
f 34/40/13 33/16/13 35/29/13 36/41/13
f 17/43/14 36/44/14 19/45/14 1/46/14
f 36/44/15 35/26/15 20/1/15 19/45/15
f 13/47/16 32/48/16 34/40/16 15/39/16
f 32/48/17 31/14/17 33/16/17 34/40/17
f 11/49/18 30/50/18 32/48/18 13/47/18
f 30/50/19 29/12/19 31/14/19 32/48/19
f 9/51/20 28/52/20 30/50/20 11/49/20
f 28/52/21 27/10/21 29/12/21 30/50/21
f 7/53/22 26/54/22 28/52/22 9/51/22
f 26/54/23 25/8/23 27/10/23 28/52/23
f 5/55/24 24/56/24 26/54/24 7/53/24
f 24/56/25 23/6/25 25/8/25 26/54/25
f 3/57/26 22/58/26 24/56/26 5/55/26
f 22/58/27 21/4/27 23/6/27 24/56/27
f 1/46/28 19/45/28 22/58/28 3/57/28
f 19/45/29 20/1/29 21/4/29 22/58/29
