# Blender v2.92.0 OBJ File: 'book_black.blend'
# www.blender.org
mtllib book_black.mtl
o Book_Black_Cube
v 0.064953 0.002615 -0.051432
v 0.064953 0.002615 -0.013332
v -0.087447 0.002615 -0.013332
v -0.087447 0.002615 -0.051432
v 0.064953 0.231215 -0.051432
v 0.064953 0.231215 -0.013332
v -0.087447 0.231215 -0.013332
v -0.087447 0.231215 -0.051432
v 0.064953 0.002615 -0.045094
v 0.064953 0.002615 -0.019670
v -0.087447 0.002615 -0.019670
v -0.087447 0.002615 -0.045094
v 0.064953 0.231215 -0.045094
v 0.064953 0.231215 -0.019670
v -0.087447 0.231215 -0.019670
v -0.087447 0.231215 -0.045094
v -0.078327 0.002615 -0.051432
v -0.078327 0.002615 -0.013332
v -0.078327 0.231215 -0.051432
v -0.078327 0.231215 -0.013332
v -0.078327 0.231215 -0.045094
v -0.078327 0.231215 -0.019670
v -0.078327 0.002615 -0.045094
v -0.078327 0.002615 -0.019670
v 0.071721 0.002615 -0.019670
v 0.071721 0.002615 -0.013332
v 0.071721 0.002615 -0.051432
v 0.071721 0.231215 -0.051432
v 0.071721 0.231215 -0.013332
v 0.071721 0.231215 -0.019670
v 0.071721 0.002615 -0.045094
v 0.071721 0.231215 -0.045094
v 0.064953 0.235662 -0.019670
v 0.064953 0.235662 -0.013332
v -0.078327 0.235662 -0.051432
v -0.087447 0.235662 -0.051432
v -0.078327 0.235662 -0.013332
v -0.087447 0.235662 -0.013332
v -0.087447 0.235662 -0.045094
v 0.064953 0.235662 -0.051432
v 0.064953 0.235662 -0.045094
v -0.087447 0.235662 -0.019670
v -0.078327 0.235662 -0.045094
v -0.078327 0.235662 -0.019670
v 0.071721 0.235662 -0.019670
v 0.071721 0.235662 -0.013332
v 0.071721 0.235662 -0.051432
v 0.071721 0.235662 -0.045094
v 0.064953 -0.003400 -0.019670
v 0.064953 -0.003400 -0.013332
v -0.078327 -0.003400 -0.051432
v -0.087447 -0.003400 -0.051432
v -0.078327 -0.003400 -0.013332
v -0.087447 -0.003400 -0.013332
v -0.087447 -0.003400 -0.045094
v 0.064953 -0.003400 -0.051432
v 0.064953 -0.003400 -0.045094
v -0.087447 -0.003400 -0.019670
v -0.078327 -0.003400 -0.045094
v -0.078327 -0.003400 -0.019670
v 0.071721 -0.003400 -0.019670
v 0.071721 -0.003400 -0.013332
v 0.071721 -0.003400 -0.051432
v 0.071721 -0.003400 -0.045094
vt 0.553221 0.023161
vt 0.543827 0.023161
vt 0.543827 0.007819
vt 0.553221 0.007819
vt 0.398263 0.696307
vt 0.398263 0.653462
vt 0.387697 0.653462
vt 0.387697 0.696307
vt 0.034986 0.018573
vt 0.034986 0.610571
vt 0.013447 0.610571
vt 0.013447 0.018573
vt 0.618550 0.016955
vt 0.618550 0.607911
vt 0.606262 0.607911
vt 0.606262 0.016955
vt 0.553221 0.606264
vt 0.543827 0.606264
vt 0.524779 0.610571
vt 0.524779 0.018573
vt 0.541644 0.018573
vt 0.541644 0.610571
vt 0.600295 0.023161
vt 0.600295 0.606264
vt 0.590901 0.606264
vt 0.590901 0.023161
vt 0.984588 0.607911
vt 0.984588 0.016955
vt 1.000282 0.016955
vt 1.000282 0.607911
vt 0.665743 0.987701
vt 0.328352 0.987701
vt 0.328352 0.789865
vt 0.665743 0.789865
vt 0.541644 0.622087
vt 0.524779 0.622087
vt 0.984588 0.619407
vt 0.618550 0.619407
vt 0.387697 0.707067
vt 0.430543 0.707067
vt 0.430543 0.696501
vt 0.387697 0.696501
vt 0.484342 0.674982
vt 0.473776 0.674982
vt 0.473776 0.685547
vt 0.484342 0.685547
vt 0.982943 0.789865
vt 0.982943 0.987702
vt 0.484342 0.653462
vt 0.473776 0.653462
vt 0.473776 0.664028
vt 0.484342 0.664028
vt 0.011152 0.987701
vt 0.011152 0.789865
vt 1.000282 0.619407
vt 0.430543 0.685547
vt 0.430543 0.664222
vt 0.419977 0.664222
vt 0.419977 0.685547
vt 0.013447 0.002997
vt 0.034986 0.002997
vt 0.419977 0.664028
vt 0.462822 0.664028
vt 0.462822 0.653462
vt 0.419977 0.653462
vt 0.473582 0.696307
vt 0.473582 0.653462
vt 0.463016 0.653462
vt 0.463016 0.696307
vt 0.387697 0.728587
vt 0.430543 0.728587
vt 0.430543 0.718021
vt 0.387697 0.718021
vt 0.606262 0.001406
vt 0.618550 0.001406
vt 0.034986 0.622087
vt 0.462822 0.707067
vt 0.462822 0.664222
vt 0.452256 0.664222
vt 0.452256 0.707067
vt 0.524779 0.002997
vt 0.541644 0.002997
vt 0.398263 0.739541
vt 0.387697 0.739541
vt 0.387697 0.750107
vt 0.398263 0.750107
vt 0.473582 0.728781
vt 0.463016 0.728781
vt 0.463016 0.739347
vt 0.473582 0.739347
vt 0.462822 0.718021
vt 0.452256 0.718021
vt 0.452256 0.728587
vt 0.462822 0.728587
vt 0.452062 0.717827
vt 0.452062 0.707261
vt 0.430737 0.707261
vt 0.430737 0.717827
vt 0.419783 0.696307
vt 0.419783 0.653462
vt 0.409217 0.653462
vt 0.409217 0.696307
vt 0.387697 0.739347
vt 0.430543 0.739347
vt 0.430543 0.728781
vt 0.387697 0.728781
vt 0.430543 0.739541
vt 0.419977 0.739541
vt 0.419977 0.750107
vt 0.430543 0.750107
vt 0.430543 0.685741
vt 0.419977 0.685741
vt 0.419977 0.696307
vt 0.430543 0.696307
vt 0.013447 0.622087
vt 0.606262 0.619407
vt 0.462822 0.707261
vt 0.452256 0.707261
vt 0.452256 0.717827
vt 0.462822 0.717827
vt 0.441303 0.707067
vt 0.441303 0.664222
vt 0.430737 0.664222
vt 0.430737 0.707067
vt 0.600295 0.617607
vt 0.590901 0.617607
vt 0.553221 0.617607
vt 0.543827 0.617607
vt 0.473582 0.696501
vt 0.463016 0.696501
vt 0.463016 0.707067
vt 0.473582 0.707067
vt 0.473582 0.707261
vt 0.463016 0.707261
vt 0.463016 0.717827
vt 0.473582 0.717827
vt 0.462822 0.728781
vt 0.452256 0.728781
vt 0.452256 0.739347
vt 0.462822 0.739347
vt 0.473582 0.718021
vt 0.463016 0.718021
vt 0.463016 0.728587
vt 0.473582 0.728587
vt 0.430737 0.728587
vt 0.452062 0.728587
vt 0.452062 0.718021
vt 0.430737 0.718021
vt 0.452062 0.664222
vt 0.441497 0.664222
vt 0.441497 0.707067
vt 0.452062 0.707067
vt 0.430543 0.717827
vt 0.430543 0.707261
vt 0.387697 0.707261
vt 0.387697 0.717827
vt 0.409023 0.739541
vt 0.398457 0.739541
vt 0.398457 0.750107
vt 0.409023 0.750107
vt 0.484342 0.664222
vt 0.473776 0.664222
vt 0.473776 0.674788
vt 0.484342 0.674788
vt 0.409023 0.696307
vt 0.409023 0.653462
vt 0.398457 0.653462
vt 0.398457 0.696307
vt 0.419783 0.739541
vt 0.409217 0.739541
vt 0.409217 0.750107
vt 0.419783 0.750107
vt 0.430737 0.739347
vt 0.452062 0.739347
vt 0.452062 0.728781
vt 0.430737 0.728781
vt 0.590901 0.007819
vt 0.600295 0.007819
vt 0.984588 0.001406
vt 0.484342 0.685741
vt 0.473776 0.685741
vt 0.473776 0.696307
vt 0.484342 0.696307
vt 1.000282 0.001406
vn -1.0000 0.0000 -0.0000
vn -0.0000 0.0000 1.0000
vn 0.0000 0.0000 -1.0000
vn 1.0000 0.0000 0.0000
vn 0.0000 -1.0000 0.0000
vn 0.0000 1.0000 -0.0000
usemtl Book_Black
s off
f 12/1/1 4/2/1 52/3/1 55/4/1
f 21/5/2 13/6/2 41/7/2 43/8/2
f 1/9/3 5/10/3 28/11/3 27/12/3
f 18/13/2 20/14/2 7/15/2 3/16/2
f 12/1/1 16/17/1 8/18/1 4/2/1
f 19/19/3 17/20/3 4/21/3 8/22/3
f 3/23/1 7/24/1 15/25/1 11/26/1
f 11/26/1 15/25/1 16/17/1 12/1/1
f 6/27/2 2/28/2 26/29/2 29/30/2
f 9/31/4 13/32/4 14/33/4 10/34/4
f 19/19/3 8/22/3 36/35/3 35/36/3
f 20/14/2 6/27/2 34/37/2 37/38/2
f 9/39/2 23/40/2 59/41/2 57/42/2
f 31/43/2 9/44/2 57/45/2 64/46/2
f 9/31/5 10/34/5 24/47/5 23/48/5
f 27/49/4 31/50/4 64/51/4 63/52/4
f 13/32/6 21/53/6 22/54/6 14/33/6
f 6/27/2 29/30/2 46/55/2 34/37/2
f 5/10/3 1/9/3 17/20/3 19/19/3
f 2/28/2 6/27/2 20/14/2 18/13/2
f 22/56/4 21/57/4 43/58/4 44/59/4
f 1/9/3 27/12/3 63/60/3 56/61/3
f 25/62/4 30/63/4 29/64/4 26/65/4
f 27/66/4 28/67/4 32/68/4 31/69/4
f 13/70/2 9/71/2 31/72/2 32/73/2
f 18/13/2 3/16/2 54/74/2 53/75/2
f 5/10/3 19/19/3 35/36/3 40/76/3
f 10/77/3 14/78/3 30/79/3 25/80/3
f 4/21/3 17/20/3 51/81/3 52/82/3
f 30/83/3 14/84/3 33/85/3 45/86/3
f 44/87/6 42/88/6 38/89/6 37/90/6
f 35/91/6 36/92/6 39/93/6 43/94/6
f 43/95/6 39/96/6 42/97/6 44/98/6
f 40/99/6 35/100/6 43/101/6 41/102/6
f 33/103/6 44/104/6 37/105/6 34/106/6
f 40/107/6 41/108/6 48/109/6 47/110/6
f 33/111/6 34/112/6 46/113/6 45/114/6
f 28/11/3 5/10/3 40/76/3 47/115/3
f 7/15/2 20/14/2 37/38/2 38/116/2
f 29/117/4 30/118/4 45/119/4 46/120/4
f 14/121/3 22/122/3 44/123/3 33/124/3
f 15/25/1 7/24/1 38/125/1 42/126/1
f 8/18/1 16/17/1 39/127/1 36/128/1
f 16/17/1 15/25/1 42/126/1 39/127/1
f 32/129/4 28/130/4 47/131/4 48/132/4
f 13/133/2 32/134/2 48/135/2 41/136/2
f 60/137/5 53/138/5 54/139/5 58/140/5
f 51/141/5 59/142/5 55/143/5 52/144/5
f 59/145/5 60/146/5 58/147/5 55/148/5
f 56/149/5 57/150/5 59/151/5 51/152/5
f 49/153/5 50/154/5 53/155/5 60/156/5
f 50/157/5 49/158/5 61/159/5 62/160/5
f 57/161/5 56/162/5 63/163/5 64/164/5
f 24/165/3 10/166/3 49/167/3 60/168/3
f 17/20/3 1/9/3 56/61/3 51/81/3
f 10/169/3 25/170/3 61/171/3 49/172/3
f 23/173/4 24/174/4 60/175/4 59/176/4
f 3/23/1 11/26/1 58/177/1 54/178/1
f 2/28/2 18/13/2 53/75/2 50/179/2
f 25/180/4 26/181/4 62/182/4 61/183/4
f 11/26/1 12/1/1 55/4/1 58/177/1
f 26/29/2 2/28/2 50/179/2 62/184/2
