# Blender v2.92.0 OBJ File: 'papers_envolope_redacted.blend'
# www.blender.org
mtllib lista.mtl
o Envolope_Redacted_Plane
v -0.102067 0.294528 -0.003394
v -0.111797 0.005537 -0.002192
v 0.111797 0.287351 0.002192
v 0.102067 -0.001640 0.003394
v -0.102191 0.294552 0.001396
v -0.111921 0.005561 0.002597
v 0.111673 0.287375 0.006982
v 0.101943 -0.001616 0.008183
v 0.052109 0.289343 -0.002100
v -0.042237 0.292509 -0.004564
v -0.051967 0.003518 -0.003363
v 0.042379 0.000352 -0.000898
v 0.051787 0.289405 0.010294
v -0.042559 0.292571 0.007829
v -0.052289 0.003580 0.009031
v 0.042057 0.000414 0.011495
vt 0.666667 1.000000
vt 1.000000 1.000000
vt 1.000000 0.000000
vt 0.666667 0.000000
vt 0.666667 1.000000
vt 0.666667 0.000000
vt 1.000000 0.000000
vt 1.000000 1.000000
vt 0.333333 1.000000
vt 0.000000 1.000000
vt 0.000000 1.000000
vt 0.333333 1.000000
vt 0.000000 0.000000
vt 0.000000 0.000000
vt 0.333333 0.000000
vt 0.333333 0.000000
vn 0.0715 -0.0066 -0.9974
vn 0.0553 0.0023 0.9985
vn -0.0336 -0.9994 0.0042
vn 0.0336 0.9994 -0.0042
vn 0.9991 -0.0335 0.0261
vn -0.9991 0.0335 -0.0261
vn 0.0336 0.9994 -0.0041
vn -0.1070 0.0077 0.9942
vn -0.0259 0.0050 0.9997
vn -0.0197 -0.0035 -0.9998
vn 0.0259 -0.0050 -0.9997
usemtl Envolope_Redacted
s off
f 9/1/1 3/2/1 4/3/1 12/4/1
f 13/5/2 16/6/2 8/7/2 7/8/2
f 12/4/3 4/3/3 8/7/3 16/6/3
f 10/9/4 1/10/4 5/11/4 14/12/4
f 4/3/5 3/2/5 7/8/5 8/7/5
f 1/10/6 2/13/6 6/14/6 5/11/6
f 3/2/7 9/1/7 13/5/7 7/8/7
f 9/1/4 10/9/4 14/12/4 13/5/4
f 2/13/3 11/15/3 15/16/3 6/14/3
f 11/15/3 12/4/3 16/6/3 15/16/3
f 5/11/8 6/14/8 15/16/8 14/12/8
f 14/12/9 15/16/9 16/6/9 13/5/9
f 1/10/10 10/9/10 11/15/10 2/13/10
f 10/9/11 9/1/11 12/4/11 11/15/11
