# Blender v2.92.0 OBJ File: 'shovel.blend'
# www.blender.org
mtllib shovel.mtl
o Shovel_Cube
v 1.189223 0.424301 -0.293355
v 1.189223 -0.001416 -0.254170
v 1.189223 0.424301 -0.283525
v 0.861656 0.424301 -0.293355
v 0.861656 -0.001416 -0.254170
v 0.861656 0.424301 -0.283525
v 1.026285 -0.001416 -0.254170
v 1.066659 0.424301 -0.283525
v 0.984368 0.424301 -0.283525
v 0.984368 0.424301 -0.293355
v 1.066659 0.424301 -0.293355
v 1.189223 0.211443 -0.293355
v 0.861656 0.211443 -0.283525
v 1.189223 0.211443 -0.283525
v 0.861656 0.211443 -0.293355
v 0.996176 0.211443 -0.293355
v 1.054851 0.211443 -0.293355
v 1.054851 0.211443 -0.283525
v 0.996176 0.211443 -0.283525
v 1.050158 0.443427 -0.259162
v 1.000721 0.443427 -0.259162
v 1.000721 0.443427 -0.317719
v 1.050158 0.443427 -0.317719
v 1.025440 0.170642 -0.278900
v 1.025440 0.170468 -0.293355
v 1.050158 0.627974 -0.259162
v 1.000721 0.627974 -0.259162
v 1.000721 0.627974 -0.317719
v 1.050158 0.627974 -0.317719
v 1.025440 0.443427 -0.251428
v 1.025440 0.443427 -0.325453
v 1.025440 0.627974 -0.251428
v 1.025440 0.627974 -0.325453
v 1.059239 0.443427 -0.289079
v 0.991640 0.443427 -0.289079
v 1.059239 0.627974 -0.289079
v 0.991640 0.627974 -0.289079
v 1.025440 0.627974 -0.289248
vt 0.248389 0.889086
vt 0.248389 0.986620
vt 0.244964 0.986620
vt 0.244964 0.889086
vt 0.211800 0.314722
vt 0.196331 0.597852
vt 0.035571 0.597852
vt 0.035571 0.314722
vt 0.249131 0.477034
vt 0.249131 0.694902
vt 0.244290 0.694902
vt 0.244290 0.477034
vt 0.705659 0.306628
vt 0.688594 0.589888
vt 0.511461 0.589888
vt 0.511461 0.306628
vt 0.984868 0.306628
vt 0.984868 0.589888
vt 0.807522 0.589888
vt 0.790457 0.306628
vt 0.748165 0.252101
vt 0.717788 0.615340
vt 0.464703 0.314722
vt 0.464703 0.597852
vt 0.304136 0.597852
vt 0.288667 0.314722
vt 0.250137 0.260452
vt 0.225588 0.623293
vt 0.248389 0.620301
vt 0.248316 0.717834
vt 0.244964 0.717834
vt 0.244964 0.620301
vt 0.217412 0.623293
vt 0.196331 0.597852
vt 0.511461 0.023368
vt 0.746942 0.023368
vt 0.984868 0.023368
vt 0.244570 0.259166
vt 0.532668 0.014978
vt 0.526721 0.288438
vt 0.538614 0.288438
vt 0.251245 0.031592
vt 0.464703 0.031592
vt 0.304136 0.597852
vt 0.278275 0.623293
vt 0.270098 0.623293
vt 0.225588 0.954680
vt 0.217412 0.954680
vt 0.247843 0.623293
vt 0.778540 0.615340
vt 0.748165 0.615340
vt 0.035571 0.031592
vt 0.584692 0.148862
vt 0.584692 0.231843
vt 0.529780 0.231843
vt 0.529780 0.148862
vt 0.248031 0.623293
vt 0.225907 0.623293
vt 0.225907 0.955218
vt 0.248031 0.955218
vt 0.270098 0.954680
vt 0.247843 0.954680
vt 0.270154 0.623293
vt 0.270154 0.955218
vt 0.278282 0.955218
vt 0.584692 0.065880
vt 0.529780 0.065880
vt 0.637258 0.065880
vt 0.637258 0.148862
vt 0.278275 0.954680
vt 0.637258 0.231843
vt 0.217779 0.623293
vt 0.217779 0.955218
vt 0.706629 0.615340
vt 0.789700 0.615340
vt 0.244290 0.477034
vt 0.244290 0.694902
vt 0.249131 0.694902
vt 0.249131 0.477034
vn 0.0000 1.0000 0.0000
vn 0.0000 0.0000 1.0000
vn 1.0000 0.0000 0.0000
vn 0.0000 0.0000 -1.0000
vn 0.4969 -0.0807 -0.8640
vn -0.5602 -0.0757 0.8249
vn -0.8939 0.3991 0.2042
vn 0.0231 -0.1840 -0.9827
vn -0.0230 -0.1841 -0.9826
vn -1.0000 -0.0000 0.0000
vn -0.0031 0.1370 0.9906
vn 0.8914 0.4049 0.2037
vn -0.9569 0.0000 0.2905
vn 0.5576 -0.0755 0.8267
vn 0.0000 -0.1002 0.9950
vn -0.4994 -0.0808 -0.8626
vn 0.0000 -0.1168 -0.9932
vn 0.0031 0.1370 0.9906
vn -0.2986 0.0000 -0.9544
vn 0.2986 0.0000 0.9544
vn 0.9532 0.0000 -0.3023
vn -0.2986 0.0000 0.9544
vn 0.2986 0.0000 -0.9544
vn 0.9569 0.0000 0.2905
vn -0.9532 0.0000 -0.3023
vn 0.8734 0.4007 -0.2769
vn -0.8757 0.3950 -0.2777
usemtl Shovel
s off
f 10/1/1 4/2/1 6/3/1 9/4/1
f 19/5/2 9/6/2 6/7/2 13/8/2
f 12/9/3 1/10/3 3/11/3 14/12/3
f 17/13/4 11/14/4 1/15/4 12/16/4
f 15/17/4 4/18/4 10/19/4 16/20/4
f 25/21/5 23/22/5 11/14/5 17/13/5
f 14/23/2 3/24/2 8/25/2 18/26/2
f 24/27/6 21/28/6 9/6/6 19/5/6
f 1/29/1 11/30/1 8/31/1 3/32/1
f 35/33/7 10/34/7 9/6/7 21/28/7
f 2/35/8 7/36/8 25/21/8 17/13/8 12/16/8
f 5/37/9 15/17/9 16/20/9 25/21/9 7/36/9
f 2/38/3 12/9/3 14/12/3
f 5/39/10 13/40/10 15/41/10
f 7/42/11 2/43/11 14/23/11 18/26/11 24/27/11
f 11/44/12 34/45/12 20/46/12 8/25/12
f 35/33/13 21/28/13 27/47/13 37/48/13
f 18/26/14 8/25/14 20/46/14 24/27/14
f 24/27/15 20/46/15 30/49/15 21/28/15
f 16/20/16 10/19/16 22/50/16 25/21/16
f 25/21/17 22/50/17 31/51/17 23/22/17
f 13/8/18 5/52/18 7/42/18 24/27/18 19/5/18
f 38/53/1 37/54/1 27/55/1 32/56/1
f 31/57/19 22/58/19 28/59/19 33/60/19
f 30/49/20 20/46/20 26/61/20 32/62/20
f 34/45/21 23/63/21 29/64/21 36/65/21
f 21/28/22 30/49/22 32/62/22 27/47/22
f 23/63/23 31/57/23 33/60/23 29/64/23
f 36/66/1 38/53/1 32/56/1 26/67/1
f 29/68/1 33/69/1 38/53/1 36/66/1
f 20/46/24 34/45/24 36/70/24 26/61/24
f 33/69/1 28/71/1 37/54/1 38/53/1
f 22/58/25 35/72/25 37/73/25 28/59/25
f 11/14/26 23/22/26 34/74/26
f 22/50/27 10/19/27 35/75/27
f 13/76/10 6/77/10 4/78/10 15/79/10
o Handke_Cube.001
v 1.044325 0.613263 -0.270915
v 1.006554 0.613263 -0.270915
v 1.006554 0.613263 -0.305966
v 1.044325 0.613263 -0.305966
v 1.044325 1.579444 -0.270915
v 1.006554 1.579444 -0.270915
v 1.006554 1.579444 -0.305966
v 1.044325 1.579444 -0.305966
v 1.025440 0.613263 -0.264309
v 1.025440 0.613263 -0.312572
v 1.025440 1.579444 -0.264309
v 1.025440 1.579444 -0.312572
v 1.049144 0.613263 -0.288440
v 1.001735 0.613263 -0.288440
v 1.049144 1.579444 -0.288440
v 1.001735 1.579444 -0.288440
v 1.025440 1.597531 -0.270484
v 1.011386 1.597531 -0.275399
v 1.025440 1.597531 -0.306397
v 1.039493 1.597531 -0.301482
v 1.043079 1.597531 -0.288440
v 1.039493 1.597531 -0.275399
v 1.007800 1.597531 -0.288440
v 1.011386 1.597531 -0.301482
vt 0.500001 0.984378
vt 0.868400 0.984378
vt 0.774138 1.000000
vt 0.500001 1.000000
vt 0.500001 0.000000
vt 0.868400 0.000000
vt 0.037596 0.000000
vt 0.131598 0.000000
vt 0.131598 0.984378
vt 0.037596 0.984378
vt 0.500001 0.000000
vt 0.131598 0.000000
vt 0.131598 0.984378
vt 0.500001 0.984378
vt 0.962404 0.000000
vt 0.868400 0.000000
vt 0.868400 0.984378
vt 0.962404 0.984378
vt 0.500001 1.000000
vt 0.774138 1.000000
vt 0.225862 1.000000
vt 0.155912 1.000000
vt 0.225862 1.000000
vt 0.844088 1.000000
vn 0.0000 0.1584 0.9874
vn 0.7208 0.1657 0.6731
vn 0.4889 0.7430 0.4570
vn 0.0000 0.7575 0.6528
vn 0.0000 0.0000 1.0000
vn 0.7308 0.0000 0.6826
vn -1.0000 0.0000 0.0000
vn -0.7308 0.0000 0.6826
vn -0.7208 0.1657 0.6731
vn -0.9876 0.1569 0.0000
vn 0.0000 0.0000 -1.0000
vn -0.7308 0.0000 -0.6826
vn -0.7208 0.1657 -0.6731
vn 0.0000 0.1584 -0.9874
vn 1.0000 0.0000 0.0000
vn 0.7308 0.0000 -0.6826
vn 0.7208 0.1657 -0.6731
vn 0.9876 0.1569 0.0000
vn 0.0000 0.7575 -0.6528
vn 0.4889 0.7430 -0.4570
vn -0.4889 0.7430 0.4570
vn -0.6424 0.7664 0.0000
vn -0.4889 0.7430 -0.4570
vn 0.6424 0.7664 0.0000
usemtl Handle
s 1
f 49/80/28 43/81/29 60/82/30 55/83/31
f 47/84/32 39/85/33 43/81/29 49/80/28
f 52/86/34 40/87/35 44/88/36 54/89/37
f 48/90/38 41/91/39 45/92/40 50/93/41
f 51/94/42 42/95/43 46/96/44 53/97/45
f 42/95/43 48/90/38 50/93/41 46/96/44
f 40/87/35 47/84/32 49/80/28 44/88/36
f 46/96/44 50/93/41 57/98/46 58/99/47
f 54/89/37 44/88/36 56/100/48 61/101/49
f 39/85/33 51/94/42 53/97/45 43/81/29
f 41/91/39 52/86/34 54/89/37 45/92/40
f 45/92/40 54/89/37 61/101/49 62/102/50
f 55/83/31 60/82/30 59/103/51 58/99/47 57/98/46 62/102/50 61/101/49 56/100/48
f 53/97/45 46/96/44 58/99/47 59/103/51
f 43/81/29 53/97/45 59/103/51 60/82/30
f 50/93/41 45/92/40 62/102/50 57/98/46
f 44/88/36 49/80/28 55/83/31 56/100/48
