# Blender v2.92.0 OBJ File: 'armario.blend'
# www.blender.org
mtllib armario.mtl
o panel_heater_Cube
v -0.722196 0.001763 0.480931
v -0.722196 0.001763 -0.480931
v 0.880906 2.727039 0.480931
v 0.880906 2.727039 -0.480931
v 0.880906 0.001763 0.480931
v 0.880907 0.001763 -0.480931
v -0.722197 2.727039 0.480930
v -0.722196 2.727039 -0.480931
vt 0.330753 0.167866
vt 0.678849 0.167866
vt 0.678848 0.007740
vt 0.330753 0.007740
vt 0.681787 0.833345
vt 0.681787 0.989780
vt 0.327814 0.989780
vt 0.327814 0.833345
vt 0.766644 0.178516
vt 0.766644 0.827840
vt 0.240913 0.827840
vt 0.240914 0.178516
vt 0.233836 0.174679
vt 0.233836 0.827313
vt 0.002559 0.827313
vt 0.002559 0.174679
vt 0.086252 0.038905
vt 0.195529 0.038905
vt 0.195530 0.144768
vt 0.086252 0.144768
vt 0.773102 0.827313
vt 0.773102 0.174679
vt 1.001585 0.174679
vt 1.001585 0.827313
vn 0.0000 -1.0000 0.0000
vn 0.0000 1.0000 0.0000
vn -0.0000 0.0000 1.0000
vn -1.0000 -0.0000 -0.0000
vn 0.0000 -0.0000 -1.0000
vn 1.0000 0.0000 0.0000
usemtl Material
s off
f 5/1/1 1/2/1 2/3/1 6/4/1
f 3/5/2 4/6/2 8/7/2 7/8/2
f 5/9/3 3/10/3 7/11/3 1/12/3
f 1/13/4 7/14/4 8/15/4 2/16/4
f 2/17/5 8/18/5 4/19/5 6/20/5
f 3/21/6 5/22/6 6/23/6 4/24/6
