# Blender v2.92.0 OBJ File: 'electricidad.blend'
# www.blender.org
mtllib electricidad.mtl
o panel_electric_Cube
v 0.445775 -0.004417 -0.185009
v 0.445775 -0.004417 0.185009
v -0.312541 -0.004417 0.185009
v -0.312541 -0.004417 -0.185009
v 0.445775 1.570183 -0.185009
v 0.445775 1.570183 0.185010
v -0.312541 1.570183 0.185009
v -0.312541 1.570183 -0.185009
v 0.386942 -0.004417 -0.185009
v -0.253708 -0.004417 -0.185009
v 0.386942 -0.004417 0.185009
v -0.253708 -0.004417 0.185009
v 0.386942 1.570183 -0.185009
v -0.253708 1.570183 -0.185009
v 0.386941 1.570183 0.185009
v -0.253708 1.570183 0.185009
v 0.445775 1.392386 -0.185009
v 0.445775 1.392386 0.185010
v -0.312541 1.392386 0.185009
v -0.312541 1.392386 -0.185009
v 0.386942 1.392386 -0.185009
v -0.253708 1.392386 -0.185009
v 0.386942 1.392386 0.185009
v -0.253708 1.392386 0.185009
v 0.386942 0.202517 0.185009
v -0.253708 0.202517 0.185009
v 0.445775 0.202517 -0.185009
v 0.445775 0.202517 0.185009
v -0.312541 0.202517 0.185009
v -0.312541 0.202517 -0.185009
v 0.386942 0.202517 -0.185009
v -0.253708 0.202517 -0.185009
v 0.340005 1.353390 0.264441
v -0.206772 1.353390 0.264441
v 0.340006 0.241512 0.264441
v -0.206772 0.241512 0.264441
vt 0.398545 0.177900
vt 0.398545 0.092229
vt 0.188188 0.092229
vt 0.188188 0.177900
vt 0.391432 0.994046
vt 0.179252 0.994046
vt 0.179252 0.913871
vt 0.391432 0.913871
vt 0.985068 0.781851
vt 0.985069 0.906675
vt 0.841387 0.906675
vt 0.841386 0.781851
vt 0.245529 0.798549
vt 0.245529 0.906675
vt 0.170770 0.906675
vt 0.170770 0.798549
vt 0.164437 0.781851
vt 0.164437 0.906675
vt 0.008354 0.906676
vt 0.008353 0.781851
vt 0.993583 0.334124
vt 0.993583 0.143274
vt 0.997841 0.143274
vt 0.997841 0.334124
vt 0.985068 0.334124
vt 0.985068 0.143274
vt 0.989326 0.143274
vt 0.989326 0.334124
vt 0.835053 0.798548
vt 0.835053 0.906675
vt 0.760294 0.906675
vt 0.760294 0.798548
vt 0.815793 0.994046
vt 0.603613 0.994046
vt 0.603613 0.913871
vt 0.815793 0.913871
vt 0.819259 0.177900
vt 0.819259 0.092229
vt 0.608902 0.092229
vt 0.608902 0.177900
vt 0.760294 0.292816
vt 0.727386 0.781895
vt 0.727385 0.309469
vt 0.835053 0.292816
vt 0.989326 0.828540
vt 0.989326 0.524974
vt 0.993583 0.524974
vt 0.993584 0.828540
vt 0.985069 0.828540
vt 0.985068 0.524974
vt 0.997841 0.524974
vt 0.997841 0.828540
vt 0.164437 0.334125
vt 0.164437 0.524975
vt 0.008353 0.524975
vt 0.008353 0.334125
vt 0.245529 0.292816
vt 0.170770 0.292816
vt 0.841386 0.524975
vt 0.841386 0.334125
vt 0.841386 0.143275
vt 0.245529 0.185910
vt 0.170770 0.185910
vt 0.164437 0.143275
vt 0.008353 0.143275
vt 0.835053 0.185910
vt 0.760294 0.185910
vt 0.278438 0.781895
vt 0.278438 0.309469
vn 0.0000 -1.0000 -0.0000
vn 0.0000 1.0000 -0.0000
vn 1.0000 0.0000 0.0000
vn -0.0000 0.0000 1.0000
vn -1.0000 0.0000 -0.0000
vn 0.0000 0.0000 -1.0000
vn 0.8609 0.0000 0.5087
vn -0.0000 0.8977 0.4407
vn -0.8609 -0.0000 0.5087
vn -0.0000 -0.8977 0.4407
usemtl panel_electric
s off
f 10/1/1 12/2/1 3/3/1 4/4/1
f 14/5/2 8/6/2 7/7/2 16/8/2
f 17/9/3 5/10/3 6/11/3 18/12/3
f 24/13/4 16/14/4 7/15/4 19/16/4
f 19/17/5 7/18/5 8/19/5 20/20/5
f 32/21/6 10/22/6 4/23/6 30/24/6
f 27/25/6 1/26/6 9/27/6 31/28/6
f 31/28/6 9/27/6 10/22/6 32/21/6
f 18/29/4 6/30/4 15/31/4 23/32/4
f 23/32/4 15/31/4 16/14/4 24/13/4
f 5/33/2 13/34/2 15/35/2 6/36/2
f 13/34/2 14/5/2 16/8/2 15/35/2
f 1/37/1 2/38/1 11/39/1 9/40/1
f 9/40/1 11/39/1 12/2/1 10/1/1
f 25/41/7 23/32/7 33/42/7 35/43/7
f 28/44/4 18/29/4 23/32/4 25/41/4
f 13/45/6 21/46/6 22/47/6 14/48/6
f 5/49/6 17/50/6 21/46/6 13/45/6
f 14/48/6 22/47/6 20/51/6 8/52/6
f 29/53/5 19/54/5 20/55/5 30/56/5
f 26/57/4 24/13/4 19/16/4 29/58/4
f 27/25/3 17/50/3 18/59/3 28/60/3
f 1/26/3 27/25/3 28/60/3 2/61/3
f 12/62/4 26/57/4 29/58/4 3/63/4
f 3/64/5 29/53/5 30/56/5 4/65/5
f 2/66/4 28/44/4 25/41/4 11/67/4
f 11/67/4 25/41/4 26/57/4 12/62/4
f 21/46/6 31/28/6 32/21/6 22/47/6
f 17/50/6 27/25/6 31/28/6 21/46/6
f 22/47/6 32/21/6 30/24/6 20/51/6
f 35/43/4 33/42/4 34/68/4 36/69/4
f 23/32/8 24/13/8 34/68/8 33/42/8
f 24/13/9 26/57/9 36/69/9 34/68/9
f 26/57/10 25/41/10 35/43/10 36/69/10
o panel_electric_handle_Cube.001
v 0.457202 0.669871 0.063959
v 0.457202 1.266890 0.459885
v 0.457202 0.724975 -0.015046
v 0.457202 1.312383 0.394659
v 0.476174 0.669871 0.063959
v 0.476174 1.266890 0.459885
v 0.460454 0.733968 -0.027939
v 0.476174 1.312383 0.394659
v 0.436197 1.218476 0.447261
v 0.436197 1.353234 0.541252
v 0.436197 1.282619 0.355297
v 0.436197 1.417377 0.449288
v 0.494384 1.218476 0.447261
v 0.494384 1.353234 0.541252
v 0.494384 1.282619 0.355297
v 0.494384 1.417377 0.449288
v 0.457202 0.845129 0.165716
v 0.457202 0.890622 0.100490
v 0.476174 0.890622 0.100490
v 0.476174 0.845129 0.165716
v 0.457202 0.866523 0.083681
v 0.460454 0.875516 0.070787
v 0.476174 0.811419 0.162686
v 0.457202 0.811419 0.162686
vt 0.399400 0.043401
vt 0.399400 0.053964
vt 0.227730 0.053964
vt 0.227730 0.043401
vt 0.571071 0.064527
vt 0.571071 0.075090
vt 0.399400 0.075090
vt 0.399400 0.064527
vt 0.227730 0.075090
vt 0.227730 0.064527
vt 0.485235 0.053964
vt 0.399400 0.053964
vt 0.399400 0.032838
vt 0.485235 0.032838
vt 0.571071 0.075090
vt 0.571071 0.053964
vt 0.742741 0.053964
vt 0.742741 0.075090
vt 0.399400 0.011711
vt 0.399400 0.032838
vt 0.227730 0.032838
vt 0.227730 0.011711
vt 0.160689 0.046067
vt 0.052598 0.046067
vt 0.052598 0.020655
vt 0.160689 0.020655
vt 0.160689 0.046067
vt 0.052598 0.046067
vt 0.052598 0.020655
vt 0.160689 0.020655
vt 0.160689 0.046067
vt 0.052598 0.046067
vt 0.052598 0.020655
vt 0.160689 0.020655
vt 0.160689 0.046067
vt 0.052598 0.046067
vt 0.052598 0.020655
vt 0.160689 0.020655
vt 0.171781 0.046067
vt 0.161303 0.046067
vt 0.161303 0.020655
vt 0.171781 0.020655
vt 0.051625 0.046067
vt 0.034591 0.046067
vt 0.034591 0.020655
vt 0.051625 0.020655
vt 0.528153 0.053964
vt 0.528153 0.032838
vt 0.399400 0.059245
vt 0.227730 0.059245
vt 0.571071 0.059245
vt 0.399400 0.038119
vt 0.227730 0.038119
vt 0.399400 0.032838
vt 0.227730 0.032838
vt 0.571071 0.053964
vt 0.399400 0.053964
vt 0.227730 0.053964
vt 0.571071 0.053964
vt 0.571071 0.032838
vn -1.0000 0.0000 0.0000
vn 0.0000 0.5721 -0.8202
vn 1.0000 0.0000 0.0000
vn 0.0000 -0.5721 0.8202
vn -0.0000 -0.8202 -0.5721
vn 0.0000 0.8202 0.5721
vn 0.0000 -0.0895 0.9960
vn 0.9626 -0.1672 -0.2129
vn -0.5411 0.7242 -0.4275
vn -0.9793 0.1159 -0.1661
vn 0.9903 0.0795 -0.1140
usemtl panel_electric
s off
f 53/70/11 38/71/11 40/72/11 54/73/11
f 54/74/12 40/75/12 44/76/12 55/77/12
f 55/77/13 44/76/13 42/78/13 56/79/13
f 56/80/14 42/81/14 38/82/14 53/83/14
f 39/84/15 43/85/15 41/86/15 37/87/15
f 44/88/16 40/89/16 38/90/16 42/91/16
f 45/92/11 46/93/11 48/94/11 47/95/11
f 47/96/12 48/97/12 52/98/12 51/99/12
f 51/100/13 52/101/13 50/102/13 49/103/13
f 49/104/14 50/105/14 46/106/14 45/107/14
f 47/108/15 51/109/15 49/110/15 45/111/15
f 52/112/16 48/113/16 46/114/16 50/115/16
f 59/116/17 56/80/17 53/83/17 60/117/17
f 58/118/18 55/77/18 56/79/18 59/119/18
f 57/120/19 54/74/19 55/77/19 58/118/19
f 60/121/11 53/70/11 54/73/11 57/122/11
f 37/123/11 60/121/11 57/122/11 39/124/11
f 39/125/20 57/120/20 58/118/20 43/126/20
f 43/126/21 58/118/21 59/119/21 41/127/21
f 41/128/14 59/116/14 60/117/14 37/129/14
