# Blender v2.92.0 OBJ File: 'estanteria.blend'
# www.blender.org
mtllib estanteria.mtl
o Commerical_Shelf_Cube
v 0.457200 0.158988 -0.038100
v 0.457200 0.158988 0.038100
v -0.457200 0.158988 0.038100
v -0.457200 0.158988 -0.038100
v 0.457200 1.682988 -0.038100
v 0.457200 1.682988 0.038100
v -0.457200 1.682988 0.038100
v -0.457200 1.682988 -0.038100
vt 0.995818 3.000000
vt 0.004182 3.000000
vt 0.004182 3.167333
vt 0.995818 3.167333
vt 1.041386 -2.000000
vt 1.041386 2.949219
vt 0.995818 2.949219
vt 0.995818 -2.000000
vt 0.995818 3.000000
vt 0.004182 3.000000
vt 0.004182 -2.000000
vt -0.032414 -2.000000
vt -0.032414 2.949219
vt 0.004182 2.949219
vt 0.004182 -2.000000
vt 0.995818 -2.000000
vn 0.0000 1.0000 0.0000
vn 1.0000 0.0000 0.0000
vn -0.0000 -0.0000 1.0000
vn -1.0000 -0.0000 -0.0000
vn 0.0000 0.0000 -1.0000
usemtl Commerical_Shelf_Back
s off
f 5/1/1 8/2/1 7/3/1 6/4/1
f 1/5/2 5/6/2 6/7/2 2/8/2
f 2/8/3 6/9/3 7/10/3 3/11/3
f 3/12/4 7/13/4 8/14/4 4/15/4
f 5/1/5 1/16/5 4/15/5 8/2/5
o Commerical_Shelf_2_Shelf.005_Cube.018
v -0.437744 0.535897 -0.529703
v -0.437744 0.561297 -0.529703
v -0.437744 0.535897 -0.034403
v -0.437744 0.561297 -0.034403
v 0.438584 0.535897 -0.529703
v 0.438584 0.561297 -0.529703
v 0.438584 0.535897 -0.034403
v 0.438584 0.561297 -0.034403
vt 1.500000 0.030479
vt -0.500000 0.030479
vt -0.500000 0.003082
vt 1.500000 0.003082
vt -0.500000 0.647260
vt 1.500000 0.647260
vt 1.500000 0.647260
vt -0.500000 0.647260
vn 0.0000 0.0000 1.0000
vn 0.0000 1.0000 0.0000
vn 0.0000 -1.0000 0.0000
usemtl Commerical_Shelf
s off
f 14/17/6 10/18/6 9/19/6 13/20/6
f 9/19/7 11/21/7 15/22/7 13/20/7
f 14/17/8 16/23/8 12/24/8 10/18/8
o Commerical_Shelf_2_Shelf_EndCapRight.005_Cube.020
v 0.438584 0.509815 -0.558182
v 0.438584 0.561297 -0.530366
v 0.438584 0.473441 -0.034403
v 0.438584 0.561297 -0.034403
v 0.455480 0.509815 -0.558182
v 0.455480 0.561297 -0.530366
v 0.455480 0.473441 -0.034403
v 0.455480 0.561297 -0.034403
vt 0.996997 0.746997
vt 0.996997 0.253003
vt 0.753003 0.253003
vt 0.753003 0.746997
vt 0.503003 0.996997
vt 0.996997 0.996997
vt 0.996997 0.753003
vt 0.503003 0.753003
vt 0.746997 0.746997
vt 0.746997 0.253003
vt 0.503003 0.253003
vt 0.503003 0.746997
vt 0.503003 0.246997
vt 0.996997 0.246997
vt 0.996997 0.003003
vt 0.503003 0.003003
vt 0.496997 0.003003
vt 0.003003 0.003003
vt 0.003003 0.496997
vt 0.496997 0.496997
vt 0.496997 0.503003
vt 0.003003 0.503003
vt 0.003003 0.996997
vt 0.496997 0.996997
vn 1.0000 0.0000 -0.0000
vn 0.0000 0.0000 -1.0000
vn -1.0000 0.0000 0.0000
vn 0.0000 -0.4753 0.8798
vn 0.0000 0.9976 0.0693
vn 0.0000 -1.0000 0.0000
usemtl Color_OffWhite
s off
f 18/25/9 20/26/9 19/27/9 17/28/9
f 20/29/10 24/30/10 23/31/10 19/32/10
f 24/33/11 22/34/11 21/35/11 23/36/11
f 22/37/12 18/38/12 17/39/12 21/40/12
f 17/41/13 19/42/13 23/43/13 21/44/13
f 22/45/14 24/46/14 20/47/14 18/48/14
o Commerical_Shelf_2_Shelf_EndCapLeft.005_Cube.019
v -0.454640 0.509815 -0.558182
v -0.454640 0.561297 -0.530366
v -0.454640 0.473441 -0.034403
v -0.454640 0.561297 -0.034403
v -0.437744 0.509815 -0.558182
v -0.437744 0.561297 -0.530366
v -0.437744 0.473441 -0.034403
v -0.437744 0.561297 -0.034403
vt 0.996997 0.746997
vt 0.996997 0.253003
vt 0.753003 0.253003
vt 0.753003 0.746997
vt 0.503003 0.996997
vt 0.996997 0.996997
vt 0.996997 0.753003
vt 0.503003 0.753003
vt 0.746997 0.746997
vt 0.746997 0.253003
vt 0.503003 0.253003
vt 0.503003 0.746997
vt 0.503003 0.246997
vt 0.996997 0.246997
vt 0.996997 0.003003
vt 0.503003 0.003003
vt 0.496997 0.003003
vt 0.003003 0.003003
vt 0.003003 0.496997
vt 0.496997 0.496997
vt 0.496997 0.503003
vt 0.003003 0.503003
vt 0.003003 0.996997
vt 0.496997 0.996997
vn 1.0000 -0.0000 -0.0000
vn 0.0000 0.0000 -1.0000
vn -1.0000 0.0000 0.0000
vn 0.0000 -0.4753 0.8798
vn 0.0000 0.9976 0.0693
vn 0.0000 -1.0000 0.0000
usemtl Color_OffWhite
s off
f 26/49/15 28/50/15 27/51/15 25/52/15
f 28/53/16 32/54/16 31/55/16 27/56/16
f 32/57/17 30/58/17 29/59/17 31/60/17
f 30/61/18 26/62/18 25/63/18 29/64/18
f 25/65/19 27/66/19 31/67/19 29/68/19
f 30/69/20 32/70/20 28/71/20 26/72/20
o Commerical_Shelf_2_Shelf.004_Cube.015
v -0.437744 1.027639 -0.533400
v -0.437744 1.053038 -0.533400
v -0.437744 1.027639 -0.038100
v -0.437744 1.053038 -0.038100
v 0.438584 1.027639 -0.533400
v 0.438584 1.053038 -0.533400
v 0.438584 1.027639 -0.038100
v 0.438584 1.053038 -0.038100
vt 1.500000 0.030479
vt -0.500000 0.030479
vt -0.500000 0.003082
vt 1.500000 0.003082
vt -0.500000 0.647260
vt 1.500000 0.647260
vt 1.500000 0.647260
vt -0.500000 0.647260
vn 0.0000 0.0000 1.0000
vn 0.0000 1.0000 0.0000
vn 0.0000 -1.0000 0.0000
usemtl Commerical_Shelf
s off
f 38/73/21 34/74/21 33/75/21 37/76/21
f 33/75/22 35/77/22 39/78/22 37/76/22
f 38/73/23 40/79/23 36/80/23 34/74/23
o Commerical_Shelf_2_Shelf_EndCapLeft.004_Cube.017
v -0.454640 1.001556 -0.561879
v -0.454640 1.053038 -0.534064
v -0.454640 0.965182 -0.038100
v -0.454640 1.053038 -0.038100
v -0.437744 1.001556 -0.561879
v -0.437744 1.053038 -0.534064
v -0.437744 0.965182 -0.038100
v -0.437744 1.053038 -0.038100
vt 0.996997 0.746997
vt 0.996997 0.253003
vt 0.753003 0.253003
vt 0.753003 0.746997
vt 0.503003 0.996997
vt 0.996997 0.996997
vt 0.996997 0.753003
vt 0.503003 0.753003
vt 0.746997 0.746997
vt 0.746997 0.253003
vt 0.503003 0.253003
vt 0.503003 0.746997
vt 0.503003 0.246997
vt 0.996997 0.246997
vt 0.996997 0.003003
vt 0.503003 0.003003
vt 0.496997 0.003003
vt 0.003003 0.003003
vt 0.003003 0.496997
vt 0.496997 0.496997
vt 0.496997 0.503003
vt 0.003003 0.503003
vt 0.003003 0.996997
vt 0.496997 0.996997
vn 1.0000 0.0000 -0.0000
vn 0.0000 0.0000 -1.0000
vn -1.0000 0.0000 0.0000
vn 0.0000 -0.4753 0.8798
vn 0.0000 0.9976 0.0693
vn 0.0000 -1.0000 0.0000
usemtl Color_OffWhite
s off
f 42/81/24 44/82/24 43/83/24 41/84/24
f 44/85/25 48/86/25 47/87/25 43/88/25
f 48/89/26 46/90/26 45/91/26 47/92/26
f 46/93/27 42/94/27 41/95/27 45/96/27
f 41/97/28 43/98/28 47/99/28 45/100/28
f 46/101/29 48/102/29 44/103/29 42/104/29
o Commerical_Shelf_2_Shelf_EndCapRight.004_Cube.016
v 0.438584 1.001556 -0.561879
v 0.438584 1.053038 -0.534064
v 0.438584 0.965182 -0.038100
v 0.438584 1.053038 -0.038100
v 0.455480 1.001556 -0.561879
v 0.455480 1.053038 -0.534064
v 0.455480 0.965182 -0.038100
v 0.455480 1.053038 -0.038100
vt 0.996997 0.746997
vt 0.996997 0.253003
vt 0.753003 0.253003
vt 0.753003 0.746997
vt 0.503003 0.996997
vt 0.996997 0.996997
vt 0.996997 0.753003
vt 0.503003 0.753003
vt 0.746997 0.746997
vt 0.746997 0.253003
vt 0.503003 0.253003
vt 0.503003 0.746997
vt 0.503003 0.246997
vt 0.996997 0.246997
vt 0.996997 0.003003
vt 0.503003 0.003003
vt 0.496997 0.003003
vt 0.003003 0.003003
vt 0.003003 0.496997
vt 0.496997 0.496997
vt 0.496997 0.503003
vt 0.003003 0.503003
vt 0.003003 0.996997
vt 0.496997 0.996997
vn 1.0000 -0.0000 -0.0000
vn 0.0000 0.0000 -1.0000
vn -1.0000 0.0000 0.0000
vn 0.0000 -0.4753 0.8798
vn 0.0000 0.9976 0.0693
vn 0.0000 -1.0000 0.0000
usemtl Color_OffWhite
s off
f 50/105/30 52/106/30 51/107/30 49/108/30
f 52/109/31 56/110/31 55/111/31 51/112/31
f 56/113/32 54/114/32 53/115/32 55/116/32
f 54/117/33 50/118/33 49/119/33 53/120/33
f 49/121/34 51/122/34 55/123/34 53/124/34
f 54/125/35 56/126/35 52/127/35 50/128/35
o Commerical_Shelf_2_Shelf.003_Cube.012
v -0.437744 1.482407 -0.533400
v -0.437744 1.507807 -0.533400
v -0.437744 1.482407 -0.038100
v -0.437744 1.507807 -0.038100
v 0.438584 1.482407 -0.533400
v 0.438584 1.507807 -0.533400
v 0.438584 1.482407 -0.038100
v 0.438584 1.507807 -0.038100
vt 1.500000 0.030479
vt -0.500000 0.030479
vt -0.500000 0.003082
vt 1.500000 0.003082
vt -0.500000 0.647260
vt 1.500000 0.647260
vt 1.500000 0.647260
vt -0.500000 0.647260
vn 0.0000 0.0000 1.0000
vn 0.0000 1.0000 0.0000
vn 0.0000 -1.0000 0.0000
usemtl Commerical_Shelf
s off
f 62/129/36 58/130/36 57/131/36 61/132/36
f 57/131/37 59/133/37 63/134/37 61/132/37
f 62/129/38 64/135/38 60/136/38 58/130/38
o Commerical_Shelf_2_Shelf_EndCapRight.003_Cube.014
v 0.438584 1.456325 -0.561879
v 0.438584 1.507807 -0.534064
v 0.438584 1.419951 -0.038100
v 0.438584 1.507807 -0.038100
v 0.455480 1.456325 -0.561879
v 0.455480 1.507807 -0.534064
v 0.455480 1.419951 -0.038100
v 0.455480 1.507807 -0.038100
vt 0.996997 0.746997
vt 0.996997 0.253003
vt 0.753003 0.253003
vt 0.753003 0.746997
vt 0.503003 0.996997
vt 0.996997 0.996997
vt 0.996997 0.753003
vt 0.503003 0.753003
vt 0.746997 0.746997
vt 0.746997 0.253003
vt 0.503003 0.253003
vt 0.503003 0.746997
vt 0.503003 0.246997
vt 0.996997 0.246997
vt 0.996997 0.003003
vt 0.503003 0.003003
vt 0.496997 0.003003
vt 0.003003 0.003003
vt 0.003003 0.496997
vt 0.496997 0.496997
vt 0.496997 0.503003
vt 0.003003 0.503003
vt 0.003003 0.996997
vt 0.496997 0.996997
vn 1.0000 -0.0000 -0.0000
vn 0.0000 0.0000 -1.0000
vn -1.0000 0.0000 0.0000
vn 0.0000 -0.4753 0.8798
vn 0.0000 0.9976 0.0693
vn 0.0000 -1.0000 0.0000
usemtl Color_OffWhite
s off
f 66/137/39 68/138/39 67/139/39 65/140/39
f 68/141/40 72/142/40 71/143/40 67/144/40
f 72/145/41 70/146/41 69/147/41 71/148/41
f 70/149/42 66/150/42 65/151/42 69/152/42
f 65/153/43 67/154/43 71/155/43 69/156/43
f 70/157/44 72/158/44 68/159/44 66/160/44
o Commerical_Shelf_2_Shelf_EndCapLeft.003_Cube.013
v -0.454640 1.456325 -0.561879
v -0.454640 1.507807 -0.534064
v -0.454640 1.419951 -0.038100
v -0.454640 1.507807 -0.038100
v -0.437744 1.456325 -0.561879
v -0.437744 1.507807 -0.534064
v -0.437744 1.419951 -0.038100
v -0.437744 1.507807 -0.038100
vt 0.996997 0.746997
vt 0.996997 0.253003
vt 0.753003 0.253003
vt 0.753003 0.746997
vt 0.503003 0.996997
vt 0.996997 0.996997
vt 0.996997 0.753003
vt 0.503003 0.753003
vt 0.746997 0.746997
vt 0.746997 0.253003
vt 0.503003 0.253003
vt 0.503003 0.746997
vt 0.503003 0.246997
vt 0.996997 0.246997
vt 0.996997 0.003003
vt 0.503003 0.003003
vt 0.496997 0.003003
vt 0.003003 0.003003
vt 0.003003 0.496997
vt 0.496997 0.496997
vt 0.496997 0.503003
vt 0.003003 0.503003
vt 0.003003 0.996997
vt 0.496997 0.996997
vn 1.0000 0.0000 -0.0000
vn 0.0000 0.0000 -1.0000
vn -1.0000 0.0000 0.0000
vn 0.0000 -0.4753 0.8798
vn 0.0000 0.9976 0.0693
vn 0.0000 -1.0000 0.0000
usemtl Color_OffWhite
s off
f 74/161/45 76/162/45 75/163/45 73/164/45
f 76/165/46 80/166/46 79/167/46 75/168/46
f 80/169/47 78/170/47 77/171/47 79/172/47
f 78/173/48 74/174/48 73/175/48 77/176/48
f 73/177/49 75/178/49 79/179/49 77/180/49
f 78/181/50 80/182/50 76/183/50 74/184/50
o Commerical_Shelf_2_Shelf.002_Cube.009
v -0.437744 1.482407 0.537097
v -0.437744 1.507807 0.537097
v -0.437744 1.482407 0.041797
v -0.437744 1.507807 0.041797
v 0.438584 1.482407 0.537097
v 0.438584 1.507807 0.537097
v 0.438584 1.482407 0.041797
v 0.438584 1.507807 0.041797
vt 1.500000 0.030479
vt -0.500000 0.030479
vt -0.500000 0.003082
vt 1.500000 0.003082
vt -0.500000 0.647260
vt 1.500000 0.647260
vt 1.500000 0.647260
vt -0.500000 0.647260
vn 0.0000 0.0000 1.0000
vn 0.0000 -1.0000 0.0000
vn 0.0000 1.0000 0.0000
usemtl Commerical_Shelf
s off
f 86/185/51 82/186/51 81/187/51 85/188/51
f 81/187/52 83/189/52 87/190/52 85/188/52
f 86/185/53 88/191/53 84/192/53 82/186/53
o Commerical_Shelf_2_Shelf_EndCapLeft.002_Cube.011
v -0.454640 1.456325 0.565576
v -0.454640 1.507807 0.537761
v -0.454640 1.419951 0.041797
v -0.454640 1.507807 0.041797
v -0.437744 1.456325 0.565576
v -0.437744 1.507807 0.537761
v -0.437744 1.419951 0.041797
v -0.437744 1.507807 0.041797
vt 0.996997 0.746997
vt 0.996997 0.253003
vt 0.753003 0.253003
vt 0.753003 0.746997
vt 0.503003 0.996997
vt 0.996997 0.996997
vt 0.996997 0.753003
vt 0.503003 0.753003
vt 0.746997 0.746997
vt 0.746997 0.253003
vt 0.503003 0.253003
vt 0.503003 0.746997
vt 0.503003 0.246997
vt 0.996997 0.246997
vt 0.996997 0.003003
vt 0.503003 0.003003
vt 0.496997 0.003003
vt 0.003003 0.003003
vt 0.003003 0.496997
vt 0.496997 0.496997
vt 0.496997 0.503003
vt 0.003003 0.503003
vt 0.003003 0.996997
vt 0.496997 0.996997
vn -1.0000 -0.0000 0.0000
vn 0.0000 0.0000 -1.0000
vn 1.0000 0.0000 0.0000
vn 0.0000 0.4753 0.8798
vn 0.0000 -0.9976 0.0693
vn 0.0000 1.0000 0.0000
usemtl Color_OffWhite
s off
f 90/193/54 92/194/54 91/195/54 89/196/54
f 92/197/55 96/198/55 95/199/55 91/200/55
f 96/201/56 94/202/56 93/203/56 95/204/56
f 94/205/57 90/206/57 89/207/57 93/208/57
f 89/209/58 91/210/58 95/211/58 93/212/58
f 94/213/59 96/214/59 92/215/59 90/216/59
o Commerical_Shelf_2_Shelf_EndCapRight.002_Cube.010
v 0.438584 1.456325 0.565576
v 0.438584 1.507807 0.537761
v 0.438584 1.419951 0.041797
v 0.438584 1.507807 0.041797
v 0.455480 1.456325 0.565576
v 0.455480 1.507807 0.537761
v 0.455480 1.419951 0.041797
v 0.455480 1.507807 0.041797
vt 0.996997 0.746997
vt 0.996997 0.253003
vt 0.753003 0.253003
vt 0.753003 0.746997
vt 0.503003 0.996997
vt 0.996997 0.996997
vt 0.996997 0.753003
vt 0.503003 0.753003
vt 0.746997 0.746997
vt 0.746997 0.253003
vt 0.503003 0.253003
vt 0.503003 0.746997
vt 0.503003 0.246997
vt 0.996997 0.246997
vt 0.996997 0.003003
vt 0.503003 0.003003
vt 0.496997 0.003003
vt 0.003003 0.003003
vt 0.003003 0.496997
vt 0.496997 0.496997
vt 0.496997 0.503003
vt 0.003003 0.503003
vt 0.003003 0.996997
vt 0.496997 0.996997
vn -1.0000 0.0000 0.0000
vn 0.0000 0.0000 -1.0000
vn 1.0000 -0.0000 0.0000
vn 0.0000 0.4753 0.8798
vn 0.0000 -0.9976 0.0693
vn 0.0000 1.0000 0.0000
usemtl Color_OffWhite
s off
f 98/217/60 100/218/60 99/219/60 97/220/60
f 100/221/61 104/222/61 103/223/61 99/224/61
f 104/225/62 102/226/62 101/227/62 103/228/62
f 102/229/63 98/230/63 97/231/63 101/232/63
f 97/233/64 99/234/64 103/235/64 101/236/64
f 102/237/65 104/238/65 100/239/65 98/240/65
o Commerical_Shelf_2_Shelf.001_Cube.006
v -0.437744 1.027639 0.537097
v -0.437744 1.053038 0.537097
v -0.437744 1.027639 0.041797
v -0.437744 1.053038 0.041797
v 0.438584 1.027639 0.537097
v 0.438584 1.053038 0.537097
v 0.438584 1.027639 0.041797
v 0.438584 1.053038 0.041797
vt 1.500000 0.030479
vt -0.500000 0.030479
vt -0.500000 0.003082
vt 1.500000 0.003082
vt -0.500000 0.647260
vt 1.500000 0.647260
vt 1.500000 0.647260
vt -0.500000 0.647260
vn 0.0000 0.0000 1.0000
vn 0.0000 -1.0000 0.0000
vn 0.0000 1.0000 0.0000
usemtl Commerical_Shelf
s off
f 110/241/66 106/242/66 105/243/66 109/244/66
f 105/243/67 107/245/67 111/246/67 109/244/67
f 110/241/68 112/247/68 108/248/68 106/242/68
o Commerical_Shelf_2_Shelf_EndCapRight.001_Cube.008
v 0.438584 1.001556 0.565576
v 0.438584 1.053038 0.537761
v 0.438584 0.965182 0.041797
v 0.438584 1.053038 0.041797
v 0.455480 1.001556 0.565576
v 0.455480 1.053038 0.537761
v 0.455480 0.965182 0.041797
v 0.455480 1.053038 0.041797
vt 0.996997 0.746997
vt 0.996997 0.253003
vt 0.753003 0.253003
vt 0.753003 0.746997
vt 0.503003 0.996997
vt 0.996997 0.996997
vt 0.996997 0.753003
vt 0.503003 0.753003
vt 0.746997 0.746997
vt 0.746997 0.253003
vt 0.503003 0.253003
vt 0.503003 0.746997
vt 0.503003 0.246997
vt 0.996997 0.246997
vt 0.996997 0.003003
vt 0.503003 0.003003
vt 0.496997 0.003003
vt 0.003003 0.003003
vt 0.003003 0.496997
vt 0.496997 0.496997
vt 0.496997 0.503003
vt 0.003003 0.503003
vt 0.003003 0.996997
vt 0.496997 0.996997
vn -1.0000 0.0000 0.0000
vn 0.0000 0.0000 -1.0000
vn 1.0000 -0.0000 0.0000
vn 0.0000 0.4753 0.8798
vn 0.0000 -0.9976 0.0693
vn 0.0000 1.0000 0.0000
usemtl Color_OffWhite
s off
f 114/249/69 116/250/69 115/251/69 113/252/69
f 116/253/70 120/254/70 119/255/70 115/256/70
f 120/257/71 118/258/71 117/259/71 119/260/71
f 118/261/72 114/262/72 113/263/72 117/264/72
f 113/265/73 115/266/73 119/267/73 117/268/73
f 118/269/74 120/270/74 116/271/74 114/272/74
o Commerical_Shelf_2_Shelf_EndCapLeft.001_Cube.007
v -0.454640 1.001556 0.565576
v -0.454640 1.053038 0.537761
v -0.454640 0.965182 0.041797
v -0.454640 1.053038 0.041797
v -0.437744 1.001556 0.565576
v -0.437744 1.053038 0.537761
v -0.437744 0.965182 0.041797
v -0.437744 1.053038 0.041797
vt 0.996997 0.746997
vt 0.996997 0.253003
vt 0.753003 0.253003
vt 0.753003 0.746997
vt 0.503003 0.996997
vt 0.996997 0.996997
vt 0.996997 0.753003
vt 0.503003 0.753003
vt 0.746997 0.746997
vt 0.746997 0.253003
vt 0.503003 0.253003
vt 0.503003 0.746997
vt 0.503003 0.246997
vt 0.996997 0.246997
vt 0.996997 0.003003
vt 0.503003 0.003003
vt 0.496997 0.003003
vt 0.003003 0.003003
vt 0.003003 0.496997
vt 0.496997 0.496997
vt 0.496997 0.503003
vt 0.003003 0.503003
vt 0.003003 0.996997
vt 0.496997 0.996997
vn -1.0000 -0.0000 0.0000
vn 0.0000 0.0000 -1.0000
vn 1.0000 0.0000 0.0000
vn 0.0000 0.4753 0.8798
vn 0.0000 -0.9976 0.0693
vn 0.0000 1.0000 0.0000
usemtl Color_OffWhite
s off
f 122/273/75 124/274/75 123/275/75 121/276/75
f 124/277/76 128/278/76 127/279/76 123/280/76
f 128/281/77 126/282/77 125/283/77 127/284/77
f 126/285/78 122/286/78 121/287/78 125/288/78
f 121/289/79 123/290/79 127/291/79 125/292/79
f 126/293/80 128/294/80 124/295/80 122/296/80
o Commerical_Shelf_Base_Cube.001
v 0.457200 0.108188 -0.567277
v 0.457200 0.108188 0.567277
v -0.457200 0.108188 0.567277
v -0.457200 0.108188 -0.567277
v 0.457200 0.158988 -0.533399
v 0.457200 0.158988 0.533400
v -0.457200 0.158988 0.533400
v -0.457200 0.158988 -0.533400
v 0.457200 0.108188 0.000000
v -0.457200 0.108188 -0.000000
v 0.457200 0.158988 0.000000
v -0.457200 0.158988 -0.000000
vt 0.470470 -0.361204
vt -0.670155 -0.361204
vt -0.670154 -0.129127
vt 0.470471 -0.129127
vt 1.500000 0.999999
vt -0.500000 1.000000
vt -0.500000 0.059719
vt 1.500000 0.059719
vt 0.489516 1.002960
vt 0.489515 1.055651
vt -0.453338 1.055651
vt -0.513219 1.002960
vt 1.500000 0.000000
vt -0.500000 0.000000
vt 0.489516 1.002960
vt 0.489516 1.055651
vt 1.432369 1.055651
vt 1.492251 1.002960
vt -0.500000 0.059720
vt -0.500000 0.000001
vt 1.499999 0.000000
vt 1.500000 0.059719
vt -0.513219 1.002960
vt -0.453337 1.055651
vt 1.492251 1.002960
vt 1.432368 1.055651
vt 1.500000 0.999999
vt -0.499999 1.000000
vt 1.611095 -0.361204
vt 1.611095 -0.129127
vn 0.0000 -1.0000 0.0000
vn 0.0000 1.0000 0.0000
vn 1.0000 0.0000 0.0000
vn -0.0000 0.5548 0.8320
vn -1.0000 -0.0000 -0.0000
vn 0.0000 0.5548 -0.8320
usemtl Commerical_Shelf
s off
f 137/297/81 130/298/81 131/299/81 138/300/81
f 139/301/82 140/302/82 135/303/82 134/304/82
f 137/305/83 139/306/83 134/307/83 130/308/83
f 130/309/84 134/304/84 135/303/84 131/310/84
f 138/311/85 140/312/85 136/313/85 132/314/85
f 133/315/86 129/316/86 132/317/86 136/318/86
f 131/319/85 135/320/85 140/312/85 138/311/85
f 129/321/83 133/322/83 139/306/83 137/305/83
f 133/315/82 136/318/82 140/323/82 139/324/82
f 129/325/81 137/297/81 138/300/81 132/326/81
o Commerical_Shelf_Bottom_Cube.002
v 0.431166 0.006139 -0.456736
v 0.431166 0.006139 0.456737
v -0.431166 0.006139 0.456736
v -0.431166 0.006139 -0.456737
v 0.431166 0.108188 -0.456736
v 0.431166 0.108188 0.456737
v -0.431166 0.108188 0.456736
v -0.431166 0.108188 -0.456737
vt -1.650932 -0.792784
vt -0.366892 -0.792784
vt -0.366892 0.491256
vt -1.650932 0.491256
vt 0.290334 0.573862
vt 0.290333 0.823862
vt -0.709667 0.823862
vt -0.709666 0.573863
vt -1.653681 0.823863
vt -1.653680 0.573863
vt 2.234347 0.573862
vt 2.234348 0.823862
vt 1.234348 0.823862
vt 1.234348 0.573862
vn 0.0000 -1.0000 -0.0000
vn 1.0000 0.0000 0.0000
vn -0.0000 -0.0000 1.0000
vn -1.0000 -0.0000 -0.0000
vn 0.0000 0.0000 -1.0000
usemtl Commerical_Shelf_Bottom
s off
f 141/327/87 142/328/87 143/329/87 144/330/87
f 141/331/88 145/332/88 146/333/88 142/334/88
f 142/334/89 146/333/89 147/335/89 143/336/89
f 143/337/90 147/338/90 148/339/90 144/340/90
f 145/332/91 141/331/91 144/340/91 148/339/91
o Commerical_Shelf_2_Shelf_Cube.003
v -0.437744 0.535897 0.533400
v -0.437744 0.561297 0.533400
v -0.437744 0.535897 0.038100
v -0.437744 0.561297 0.038100
v 0.438584 0.535897 0.533400
v 0.438584 0.561297 0.533400
v 0.438584 0.535897 0.038100
v 0.438584 0.561297 0.038100
vt 1.500000 0.030479
vt -0.500000 0.030479
vt -0.500000 0.003082
vt 1.500000 0.003082
vt -0.500000 0.647260
vt 1.500000 0.647260
vt 1.500000 0.647260
vt -0.500000 0.647260
vn 0.0000 0.0000 1.0000
vn 0.0000 -1.0000 0.0000
vn 0.0000 1.0000 0.0000
usemtl Commerical_Shelf
s off
f 154/341/92 150/342/92 149/343/92 153/344/92
f 149/343/93 151/345/93 155/346/93 153/344/93
f 154/341/94 156/347/94 152/348/94 150/342/94
o Commerical_Shelf_2_Shelf_EndCapLeft_Cube.005
v -0.454640 0.509815 0.561879
v -0.454640 0.561297 0.534064
v -0.454640 0.473441 0.038100
v -0.454640 0.561297 0.038100
v -0.437744 0.509815 0.561879
v -0.437744 0.561297 0.534064
v -0.437744 0.473441 0.038100
v -0.437744 0.561297 0.038100
vt 0.996997 0.746997
vt 0.996997 0.253003
vt 0.753003 0.253003
vt 0.753003 0.746997
vt 0.503003 0.996997
vt 0.996997 0.996997
vt 0.996997 0.753003
vt 0.503003 0.753003
vt 0.746997 0.746997
vt 0.746997 0.253003
vt 0.503003 0.253003
vt 0.503003 0.746997
vt 0.503003 0.246997
vt 0.996997 0.246997
vt 0.996997 0.003003
vt 0.503003 0.003003
vt 0.496997 0.003003
vt 0.003003 0.003003
vt 0.003003 0.496997
vt 0.496997 0.496997
vt 0.496997 0.503003
vt 0.003003 0.503003
vt 0.003003 0.996997
vt 0.496997 0.996997
vn -1.0000 0.0000 0.0000
vn 0.0000 0.0000 -1.0000
vn 1.0000 0.0000 0.0000
vn 0.0000 0.4753 0.8798
vn 0.0000 -0.9976 0.0693
vn 0.0000 1.0000 0.0000
usemtl Color_OffWhite
s off
f 158/349/95 160/350/95 159/351/95 157/352/95
f 160/353/96 164/354/96 163/355/96 159/356/96
f 164/357/97 162/358/97 161/359/97 163/360/97
f 162/361/98 158/362/98 157/363/98 161/364/98
f 157/365/99 159/366/99 163/367/99 161/368/99
f 162/369/100 164/370/100 160/371/100 158/372/100
o Commerical_Shelf_2_Shelf_EndCapRight_Cube.004
v 0.438584 0.509815 0.561879
v 0.438584 0.561297 0.534064
v 0.438584 0.473441 0.038100
v 0.438584 0.561297 0.038100
v 0.455480 0.509815 0.561879
v 0.455480 0.561297 0.534064
v 0.455480 0.473441 0.038100
v 0.455480 0.561297 0.038100
vt 0.996997 0.746997
vt 0.996997 0.253003
vt 0.753003 0.253003
vt 0.753003 0.746997
vt 0.503003 0.996997
vt 0.996997 0.996997
vt 0.996997 0.753003
vt 0.503003 0.753003
vt 0.746997 0.746997
vt 0.746997 0.253003
vt 0.503003 0.253003
vt 0.503003 0.746997
vt 0.503003 0.246997
vt 0.996997 0.246997
vt 0.996997 0.003003
vt 0.503003 0.003003
vt 0.496997 0.003003
vt 0.003003 0.003003
vt 0.003003 0.496997
vt 0.496997 0.496997
vt 0.496997 0.503003
vt 0.003003 0.503003
vt 0.003003 0.996997
vt 0.496997 0.996997
vn -1.0000 0.0000 0.0000
vn 0.0000 0.0000 -1.0000
vn 1.0000 0.0000 0.0000
vn 0.0000 0.4753 0.8798
vn 0.0000 -0.9976 0.0693
vn 0.0000 1.0000 0.0000
usemtl Color_OffWhite
s off
f 166/373/101 168/374/101 167/375/101 165/376/101
f 168/377/102 172/378/102 171/379/102 167/380/102
f 172/381/103 170/382/103 169/383/103 171/384/103
f 170/385/104 166/386/104 165/387/104 169/388/104
f 165/389/105 167/390/105 171/391/105 169/392/105
f 170/393/106 172/394/106 168/395/106 166/396/106
