# Blender v2.92.0 OBJ File: ''
# www.blender.org
mtllib marco_grande.mtl
o Door_Frame_Cube.001
v -0.859701 2.158585 0.076200
v -0.876846 2.158585 -0.076200
v -0.897891 0.006353 -0.076200
v -0.889989 0.006353 0.076200
v -0.728678 2.046025 -0.076200
v -0.784477 0.006353 -0.076200
v -0.730594 2.046025 0.076200
v -0.798281 0.006353 0.076200
v 0.833115 2.158585 0.076200
v 0.832920 2.158585 -0.076200
v 0.866990 0.006353 0.076200
v 0.861783 0.006353 -0.076200
v 0.736970 0.006353 -0.076200
v 0.715265 2.046025 -0.076200
v 0.723643 0.006353 0.076200
v 0.715464 2.046025 0.076200
vt -0.104018 -0.055187
vt 0.125000 -0.055187
vt 0.125000 1.000000
vt -0.104018 1.000000
vt 0.293065 0.000000
vt 0.293065 1.000000
vt 0.522083 0.000000
vt 0.522083 1.000000
vt -0.272083 0.000000
vt -0.272083 1.000000
vt 0.521915 1.215187
vt 0.521915 1.396013
vt -0.010103 1.396013
vt -0.010103 1.215187
vt -0.104018 -0.055187
vt -0.104018 1.000000
vt 0.125000 1.000000
vt 0.125000 -0.055187
vt 0.293065 1.000000
vt 0.293065 0.000000
vt 0.522083 1.000000
vt 0.522083 0.000000
vt -0.272083 0.000000
vt -0.272083 1.000000
vt 0.430492 1.528713
vt 0.430492 1.709540
vt -0.010103 1.709539
vt -0.010103 1.528713
vt 0.430492 1.082487
vt -0.010103 1.082487
vn -0.9966 0.0119 0.0819
vn 0.0000 0.0000 -1.0000
vn 0.9982 -0.0302 0.0515
vn -0.0000 -0.0000 1.0000
vn 0.0000 1.0000 -0.0000
vn 0.9997 0.0146 -0.0177
vn -0.9990 -0.0073 -0.0430
vn 0.0000 -1.0000 0.0000
usemtl Door_Frame.001
s 1
f 1/1/1 2/2/1 3/3/1 4/4/1
f 2/2/2 5/5/2 6/6/2 3/3/2
f 5/5/3 7/7/3 8/8/3 6/6/3
f 7/9/4 1/1/4 4/4/4 8/10/4
f 2/11/5 1/12/5 9/13/5 10/14/5
f 9/15/6 11/16/6 12/17/6 10/18/6
f 10/18/2 12/17/2 13/19/2 14/20/2
f 14/20/7 13/19/7 15/21/7 16/22/7
f 16/23/4 15/24/4 11/16/4 9/15/4
f 7/25/8 5/26/8 14/27/8 16/28/8
f 5/29/2 2/11/2 10/14/2 14/30/2
f 1/12/4 7/25/4 16/28/4 9/13/4
