# Blender v2.92.0 OBJ File: 'media_estanteria.blend'
# www.blender.org
mtllib media_estanteria.mtl
o Commerical_Shelf_End_Cube
v 0.457200 0.162847 -0.038100
v 0.457200 0.162847 0.038100
v -0.457200 0.162847 0.038100
v -0.457200 0.162847 -0.038100
v 0.457200 1.686847 -0.038100
v 0.457200 1.686847 0.038100
v -0.457200 1.686847 0.038100
v -0.457200 1.686847 -0.038100
vt 0.995818 3.000000
vt 0.004182 3.000000
vt 0.004182 3.167333
vt 0.995818 3.167333
vt 1.041386 -2.000000
vt 1.041386 2.949219
vt 0.995818 2.949219
vt 0.995818 -2.000000
vt 0.995818 3.000000
vt 0.004182 3.000000
vt 0.004182 -2.000000
vt -0.032414 -2.000000
vt -0.032414 2.949219
vt 0.004182 2.949219
vt 0.004182 -2.000000
vt 0.995818 -2.000000
vn 0.0000 1.0000 0.0000
vn 1.0000 0.0000 0.0000
vn -0.0000 -0.0000 1.0000
vn -1.0000 -0.0000 -0.0000
vn 0.0000 0.0000 -1.0000
usemtl Commerical_Shelf_Back
s off
f 5/1/1 8/2/1 7/3/1 6/4/1
f 1/5/2 5/6/2 6/7/2 2/8/2
f 2/8/3 6/9/3 7/10/3 3/11/3
f 3/12/4 7/13/4 8/14/4 4/15/4
f 5/1/5 1/16/5 4/15/5 8/2/5
o Commerical_Shelf_End_Shelf_Cube.009
v -0.437744 1.486266 0.537097
v -0.437744 1.511665 0.537097
v -0.437744 1.486266 0.041797
v -0.437744 1.511665 0.041797
v 0.438584 1.486266 0.537097
v 0.438584 1.511665 0.537097
v 0.438584 1.486266 0.041797
v 0.438584 1.511665 0.041797
vt 1.500000 0.030479
vt -0.500000 0.030479
vt -0.500000 0.003082
vt 1.500000 0.003082
vt -0.500000 0.647260
vt 1.500000 0.647260
vt 1.500000 0.647260
vt -0.500000 0.647260
vn 0.0000 0.0000 1.0000
vn 0.0000 -1.0000 0.0000
vn 0.0000 1.0000 0.0000
usemtl Commerical_Shelf
s off
f 14/17/6 10/18/6 9/19/6 13/20/6
f 9/19/7 11/21/7 15/22/7 13/20/7
f 14/17/8 16/23/8 12/24/8 10/18/8
o Commerical_Shelf_End_EndCap.001_Cube.011
v -0.454640 1.460183 0.565576
v -0.454640 1.511665 0.537761
v -0.454640 1.423809 0.041797
v -0.454640 1.511665 0.041797
v -0.437744 1.460183 0.565576
v -0.437744 1.511665 0.537761
v -0.437744 1.423809 0.041797
v -0.437744 1.511665 0.041797
vt 0.996997 0.746997
vt 0.996997 0.253003
vt 0.753003 0.253003
vt 0.753003 0.746997
vt 0.503003 0.996997
vt 0.996997 0.996997
vt 0.996997 0.753003
vt 0.503003 0.753003
vt 0.746997 0.746997
vt 0.746997 0.253003
vt 0.503003 0.253003
vt 0.503003 0.746997
vt 0.503003 0.246997
vt 0.996997 0.246997
vt 0.996997 0.003003
vt 0.503003 0.003003
vt 0.496997 0.003003
vt 0.003003 0.003003
vt 0.003003 0.496997
vt 0.496997 0.496997
vt 0.496997 0.503003
vt 0.003003 0.503003
vt 0.003003 0.996997
vt 0.496997 0.996997
vn -1.0000 -0.0000 0.0000
vn 0.0000 0.0000 -1.0000
vn 1.0000 0.0000 0.0000
vn 0.0000 0.4753 0.8798
vn 0.0000 -0.9976 0.0693
vn 0.0000 1.0000 0.0000
usemtl Color_OffWhite
s off
f 18/25/9 20/26/9 19/27/9 17/28/9
f 20/29/10 24/30/10 23/31/10 19/32/10
f 24/33/11 22/34/11 21/35/11 23/36/11
f 22/37/12 18/38/12 17/39/12 21/40/12
f 17/41/13 19/42/13 23/43/13 21/44/13
f 22/45/14 24/46/14 20/47/14 18/48/14
o Commerical_Shelf_End_EndCap_Cube.010
v 0.438584 1.460183 0.565576
v 0.438584 1.511665 0.537761
v 0.438584 1.423809 0.041797
v 0.438584 1.511665 0.041797
v 0.455480 1.460183 0.565576
v 0.455480 1.511665 0.537761
v 0.455480 1.423809 0.041797
v 0.455480 1.511665 0.041797
vt 0.996997 0.746997
vt 0.996997 0.253003
vt 0.753003 0.253003
vt 0.753003 0.746997
vt 0.503003 0.996997
vt 0.996997 0.996997
vt 0.996997 0.753003
vt 0.503003 0.753003
vt 0.746997 0.746997
vt 0.746997 0.253003
vt 0.503003 0.253003
vt 0.503003 0.746997
vt 0.503003 0.246997
vt 0.996997 0.246997
vt 0.996997 0.003003
vt 0.503003 0.003003
vt 0.496997 0.003003
vt 0.003003 0.003003
vt 0.003003 0.496997
vt 0.496997 0.496997
vt 0.496997 0.503003
vt 0.003003 0.503003
vt 0.003003 0.996997
vt 0.496997 0.996997
vn -1.0000 0.0000 0.0000
vn 0.0000 0.0000 -1.0000
vn 1.0000 -0.0000 0.0000
vn 0.0000 0.4753 0.8798
vn 0.0000 -0.9976 0.0693
vn 0.0000 1.0000 0.0000
usemtl Color_OffWhite
s off
f 26/49/15 28/50/15 27/51/15 25/52/15
f 28/53/16 32/54/16 31/55/16 27/56/16
f 32/57/17 30/58/17 29/59/17 31/60/17
f 30/61/18 26/62/18 25/63/18 29/64/18
f 25/65/19 27/66/19 31/67/19 29/68/19
f 30/69/20 32/70/20 28/71/20 26/72/20
o Commerical_Shelf_End_Shelf.001_Cube.006
v -0.437744 1.031497 0.537097
v -0.437744 1.056897 0.537097
v -0.437744 1.031497 0.041797
v -0.437744 1.056897 0.041797
v 0.438584 1.031497 0.537097
v 0.438584 1.056897 0.537097
v 0.438584 1.031497 0.041797
v 0.438584 1.056897 0.041797
vt 1.500000 0.030479
vt -0.500000 0.030479
vt -0.500000 0.003082
vt 1.500000 0.003082
vt -0.500000 0.647260
vt 1.500000 0.647260
vt 1.500000 0.647260
vt -0.500000 0.647260
vn 0.0000 0.0000 1.0000
vn 0.0000 -1.0000 0.0000
vn 0.0000 1.0000 0.0000
usemtl Commerical_Shelf
s off
f 38/73/21 34/74/21 33/75/21 37/76/21
f 33/75/22 35/77/22 39/78/22 37/76/22
f 38/73/23 40/79/23 36/80/23 34/74/23
o Commerical_Shelf_End_EndCap.003_Cube.008
v 0.438584 1.005415 0.565576
v 0.438584 1.056897 0.537761
v 0.438584 0.969041 0.041797
v 0.438584 1.056897 0.041797
v 0.455480 1.005415 0.565576
v 0.455480 1.056897 0.537761
v 0.455480 0.969041 0.041797
v 0.455480 1.056897 0.041797
vt 0.996997 0.746997
vt 0.996997 0.253003
vt 0.753003 0.253003
vt 0.753003 0.746997
vt 0.503003 0.996997
vt 0.996997 0.996997
vt 0.996997 0.753003
vt 0.503003 0.753003
vt 0.746997 0.746997
vt 0.746997 0.253003
vt 0.503003 0.253003
vt 0.503003 0.746997
vt 0.503003 0.246997
vt 0.996997 0.246997
vt 0.996997 0.003003
vt 0.503003 0.003003
vt 0.496997 0.003003
vt 0.003003 0.003003
vt 0.003003 0.496997
vt 0.496997 0.496997
vt 0.496997 0.503003
vt 0.003003 0.503003
vt 0.003003 0.996997
vt 0.496997 0.996997
vn -1.0000 0.0000 0.0000
vn 0.0000 0.0000 -1.0000
vn 1.0000 -0.0000 0.0000
vn 0.0000 0.4753 0.8798
vn 0.0000 -0.9976 0.0693
vn 0.0000 1.0000 0.0000
usemtl Color_OffWhite
s off
f 42/81/24 44/82/24 43/83/24 41/84/24
f 44/85/25 48/86/25 47/87/25 43/88/25
f 48/89/26 46/90/26 45/91/26 47/92/26
f 46/93/27 42/94/27 41/95/27 45/96/27
f 41/97/28 43/98/28 47/99/28 45/100/28
f 46/101/29 48/102/29 44/103/29 42/104/29
o Commerical_Shelf_End_EndCap.002_Cube.007
v -0.454640 1.005415 0.565576
v -0.454640 1.056897 0.537761
v -0.454640 0.969041 0.041797
v -0.454640 1.056897 0.041797
v -0.437744 1.005415 0.565576
v -0.437744 1.056897 0.537761
v -0.437744 0.969041 0.041797
v -0.437744 1.056897 0.041797
vt 0.996997 0.746997
vt 0.996997 0.253003
vt 0.753003 0.253003
vt 0.753003 0.746997
vt 0.503003 0.996997
vt 0.996997 0.996997
vt 0.996997 0.753003
vt 0.503003 0.753003
vt 0.746997 0.746997
vt 0.746997 0.253003
vt 0.503003 0.253003
vt 0.503003 0.746997
vt 0.503003 0.246997
vt 0.996997 0.246997
vt 0.996997 0.003003
vt 0.503003 0.003003
vt 0.496997 0.003003
vt 0.003003 0.003003
vt 0.003003 0.496997
vt 0.496997 0.496997
vt 0.496997 0.503003
vt 0.003003 0.503003
vt 0.003003 0.996997
vt 0.496997 0.996997
vn -1.0000 -0.0000 0.0000
vn 0.0000 0.0000 -1.0000
vn 1.0000 0.0000 0.0000
vn 0.0000 0.4753 0.8798
vn 0.0000 -0.9976 0.0693
vn 0.0000 1.0000 0.0000
usemtl Color_OffWhite
s off
f 50/105/30 52/106/30 51/107/30 49/108/30
f 52/109/31 56/110/31 55/111/31 51/112/31
f 56/113/32 54/114/32 53/115/32 55/116/32
f 54/117/33 50/118/33 49/119/33 53/120/33
f 49/121/34 51/122/34 55/123/34 53/124/34
f 54/125/35 56/126/35 52/127/35 50/128/35
o Commerical_Shelf_End_Base_Cube.001
v 0.457200 0.112047 -0.038100
v 0.457200 0.112047 0.593727
v -0.457200 0.112047 0.593726
v -0.457200 0.112047 -0.038100
v 0.457200 0.162847 0.593727
v -0.457200 0.162847 0.593726
v -0.457200 0.162847 -0.038100
v 0.457200 0.162847 -0.038100
vt 1.353297 0.000000
vt 1.353297 0.059719
vt -0.353297 0.059719
vt -0.353297 0.000000
vt -2.398438 0.059720
vt -2.398437 0.000001
vt -0.398438 0.000000
vt -0.398438 0.059719
vt -0.397259 1.002275
vt -0.397259 1.054966
vt -1.340112 1.054966
vt -1.399994 1.002275
vt 1.353297 1.084797
vt -0.353297 1.084798
vt -0.406873 0.621673
vt -1.547498 0.621673
vt -1.547498 0.853749
vt -0.406873 0.853749
vt -1.399993 1.002275
vt -1.340111 1.054966
vt -0.397258 1.054966
vt -0.397258 1.002275
vn -0.0000 -0.0000 1.0000
vn 0.0000 -0.0000 -1.0000
vn 1.0000 0.0000 0.0000
vn 0.0000 1.0000 -0.0000
vn 0.0000 -1.0000 -0.0000
vn -1.0000 -0.0000 -0.0000
usemtl Commerical_Shelf
s off
f 58/129/36 61/130/36 62/131/36 59/132/36
f 64/133/37 57/134/37 60/135/37 63/136/37
f 57/137/38 64/138/38 61/139/38 58/140/38
f 64/141/39 63/142/39 62/131/39 61/130/39
f 57/143/40 58/144/40 59/145/40 60/146/40
f 59/147/41 62/148/41 63/149/41 60/150/41
o Commerical_Shelf_End_Bottom_Cube.002
v 0.431166 0.009998 -0.038100
v 0.431166 0.009998 0.545379
v -0.431166 0.009998 0.545379
v -0.431166 0.009998 -0.038100
v 0.431166 0.112047 -0.038100
v 0.431166 0.112047 0.545379
v -0.431166 0.112047 0.545379
v -0.431166 0.112047 -0.038100
vt -1.650932 -0.792784
vt -0.366892 -0.792784
vt -0.366892 0.491256
vt -1.650932 0.491256
vt 0.290334 0.573862
vt 0.290333 0.823862
vt -0.709667 0.823862
vt -0.709666 0.573863
vt -1.653681 0.823863
vt -1.653680 0.573863
vt 2.234347 0.573862
vt 2.234348 0.823862
vt 1.234348 0.823862
vt 1.234348 0.573862
vn 0.0000 -1.0000 -0.0000
vn 1.0000 0.0000 0.0000
vn -0.0000 -0.0000 1.0000
vn -1.0000 -0.0000 -0.0000
vn 0.0000 0.0000 -1.0000
usemtl Commerical_Shelf_Bottom
s off
f 65/151/42 66/152/42 67/153/42 68/154/42
f 65/155/43 69/156/43 70/157/43 66/158/43
f 66/158/44 70/157/44 71/159/44 67/160/44
f 67/161/45 71/162/45 72/163/45 68/164/45
f 69/156/46 65/155/46 68/164/46 72/163/46
o Commerical_Shelf_End_Shelf.002_Cube.003
v -0.437744 0.539756 0.533400
v -0.437744 0.565156 0.533400
v -0.437744 0.539756 0.038100
v -0.437744 0.565156 0.038100
v 0.438584 0.539756 0.533400
v 0.438584 0.565156 0.533400
v 0.438584 0.539756 0.038100
v 0.438584 0.565156 0.038100
vt 1.500000 0.030479
vt -0.500000 0.030479
vt -0.500000 0.003082
vt 1.500000 0.003082
vt -0.500000 0.647260
vt 1.500000 0.647260
vt 1.500000 0.647260
vt -0.500000 0.647260
vn 0.0000 0.0000 1.0000
vn 0.0000 -1.0000 0.0000
vn 0.0000 1.0000 0.0000
usemtl Commerical_Shelf
s off
f 78/165/47 74/166/47 73/167/47 77/168/47
f 73/167/48 75/169/48 79/170/48 77/168/48
f 78/165/49 80/171/49 76/172/49 74/166/49
o Commerical_Shelf_End_EndCap.005_Cube.005
v -0.454640 0.513673 0.561879
v -0.454640 0.565156 0.534064
v -0.454640 0.477299 0.038100
v -0.454640 0.565156 0.038100
v -0.437744 0.513673 0.561879
v -0.437744 0.565156 0.534064
v -0.437744 0.477299 0.038100
v -0.437744 0.565156 0.038100
vt 0.996997 0.746997
vt 0.996997 0.253003
vt 0.753003 0.253003
vt 0.753003 0.746997
vt 0.503003 0.996997
vt 0.996997 0.996997
vt 0.996997 0.753003
vt 0.503003 0.753003
vt 0.746997 0.746997
vt 0.746997 0.253003
vt 0.503003 0.253003
vt 0.503003 0.746997
vt 0.503003 0.246997
vt 0.996997 0.246997
vt 0.996997 0.003003
vt 0.503003 0.003003
vt 0.496997 0.003003
vt 0.003003 0.003003
vt 0.003003 0.496997
vt 0.496997 0.496997
vt 0.496997 0.503003
vt 0.003003 0.503003
vt 0.003003 0.996997
vt 0.496997 0.996997
vn -1.0000 0.0000 0.0000
vn 0.0000 0.0000 -1.0000
vn 1.0000 0.0000 0.0000
vn 0.0000 0.4753 0.8798
vn 0.0000 -0.9976 0.0693
vn 0.0000 1.0000 0.0000
usemtl Color_OffWhite
s off
f 82/173/50 84/174/50 83/175/50 81/176/50
f 84/177/51 88/178/51 87/179/51 83/180/51
f 88/181/52 86/182/52 85/183/52 87/184/52
f 86/185/53 82/186/53 81/187/53 85/188/53
f 81/189/54 83/190/54 87/191/54 85/192/54
f 86/193/55 88/194/55 84/195/55 82/196/55
o Commerical_Shelf_End_EndCap.004_Cube.004
v 0.438584 0.513673 0.561879
v 0.438584 0.565156 0.534064
v 0.438584 0.477299 0.038100
v 0.438584 0.565156 0.038100
v 0.455480 0.513673 0.561879
v 0.455480 0.565156 0.534064
v 0.455480 0.477299 0.038100
v 0.455480 0.565156 0.038100
vt 0.996997 0.746997
vt 0.996997 0.253003
vt 0.753003 0.253003
vt 0.753003 0.746997
vt 0.503003 0.996997
vt 0.996997 0.996997
vt 0.996997 0.753003
vt 0.503003 0.753003
vt 0.746997 0.746997
vt 0.746997 0.253003
vt 0.503003 0.253003
vt 0.503003 0.746997
vt 0.503003 0.246997
vt 0.996997 0.246997
vt 0.996997 0.003003
vt 0.503003 0.003003
vt 0.496997 0.003003
vt 0.003003 0.003003
vt 0.003003 0.496997
vt 0.496997 0.496997
vt 0.496997 0.503003
vt 0.003003 0.503003
vt 0.003003 0.996997
vt 0.496997 0.996997
vn -1.0000 0.0000 0.0000
vn 0.0000 0.0000 -1.0000
vn 1.0000 0.0000 0.0000
vn 0.0000 0.4753 0.8798
vn 0.0000 -0.9976 0.0693
vn 0.0000 1.0000 0.0000
usemtl Color_OffWhite
s off
f 90/197/56 92/198/56 91/199/56 89/200/56
f 92/201/57 96/202/57 95/203/57 91/204/57
f 96/205/58 94/206/58 93/207/58 95/208/58
f 94/209/59 90/210/59 89/211/59 93/212/59
f 89/213/60 91/214/60 95/215/60 93/216/60
f 94/217/61 96/218/61 92/219/61 90/220/61
