# Blender v2.92.0 OBJ File: 'panel_control.blend'
# www.blender.org
mtllib panel_control.mtl
o panel_amp_controls_Cube
v -0.318350 0.002803 -0.141489
v 0.318350 0.002803 -0.141489
v 0.318350 0.002803 0.141489
v -0.318350 0.002803 0.141489
v -0.318350 1.021522 -0.141489
v 0.318350 1.021522 -0.141489
v 0.318350 1.021522 0.141489
v -0.318350 1.021522 0.141489
vt 0.249738 0.013084
vt 0.760341 0.012165
vt 0.760341 0.181461
vt 0.249737 0.182380
vt 0.249737 0.991845
vt 0.249737 0.822549
vt 0.760341 0.821630
vt 0.760341 0.990926
vt 0.973262 0.023335
vt 0.973262 0.156904
vt 0.902854 0.156904
vt 0.902854 0.023335
vt 0.991121 0.181461
vt 0.991121 0.821630
vt 0.018957 0.822549
vt 0.018957 0.182380
vn 0.0000 -1.0000 -0.0000
vn 0.0000 1.0000 -0.0000
vn 0.0000 0.0000 -1.0000
vn 1.0000 -0.0000 0.0000
vn -1.0000 0.0000 -0.0000
vn -0.0000 -0.0000 1.0000
usemtl Material
s off
f 1/1/1 2/2/1 3/3/1 4/4/1
f 5/5/2 8/6/2 7/7/2 6/8/2
f 1/9/3 5/10/3 6/11/3 2/12/3
f 2/13/4 6/14/4 7/7/4 3/3/4
f 5/15/5 1/16/5 4/4/5 8/6/5
f 4/4/6 3/3/6 7/7/6 8/6/6
