# Blender v2.92.0 OBJ File: 'piedra2.blend'
# www.blender.org
mtllib piedra2.mtl
o rock_2_Cube.014
v 0.128055 0.871260 -0.123454
v 0.282797 0.563534 0.018631
v -0.067120 0.908668 -0.175103
v -0.028876 0.789690 0.180706
v -0.234083 0.742597 -0.130230
v 0.008947 0.137168 -0.160701
v 0.219790 0.247180 0.210895
v -0.051528 0.107214 0.215944
v -0.301129 0.806948 0.000355
v -0.260947 0.531084 0.123603
v -0.234831 0.107091 0.193207
v -0.286995 0.191292 -0.124649
v 0.308110 0.130850 -0.073128
v 0.320796 0.089645 -0.001955
v 0.304939 0.246969 0.095859
v 0.164622 0.665787 0.177878
v 0.086357 0.915406 -0.042972
v -0.135193 0.926793 0.022208
v -0.059770 -0.021710 0.081923
v 0.118466 -0.000908 0.111839
v -0.284696 0.085797 0.028987
vt 0.259997 0.640207
vt 0.410822 0.366730
vt 0.431685 0.808177
vt 0.233917 0.222770
vt 0.115669 0.341624
vt 0.063552 0.219290
vt 0.033213 0.485471
vt 0.141290 0.419084
vt 0.234399 0.675917
vt 0.759748 0.566014
vt 0.841305 0.614127
vt 0.647687 0.784485
vt 0.474864 0.149050
vt 0.346706 0.220260
vt 0.442527 0.085028
vt 0.516925 0.290632
vt 0.459403 0.341937
vt 0.552022 0.925626
vt 0.408653 0.945295
vt 0.388309 0.865450
vt 0.763546 0.501574
vt 0.650916 0.494554
vt 0.668749 0.024261
vt 0.169227 0.806335
vt 0.070232 0.804190
vt 0.259467 0.342676
vt 0.916591 0.736476
vt 0.794129 0.817958
vt 0.864612 0.388028
vt 0.207471 0.907610
vt 0.071039 0.964425
vt 0.245020 0.033380
vt 0.274195 0.364661
vt 0.240543 0.372580
vt 0.859208 0.483864
vt 0.982949 0.598226
vt 0.580185 0.462121
vt 0.538842 0.676081
vt 0.483460 0.041631
vt 0.328220 0.860700
vt 0.594974 0.972088
vt 0.842021 0.030356
vt 0.029561 0.076218
vn -0.7447 0.0668 0.6640
vn -0.0305 -0.3420 0.9392
vn -0.0270 0.4829 0.8753
vn -0.1145 -0.9926 0.0398
vn -0.5737 -0.3605 0.7355
vn -0.7926 -0.6012 -0.1013
vn -0.7035 -0.3094 -0.6397
vn 0.6537 0.5150 -0.5544
vn 0.4672 0.8711 0.1510
vn 0.9639 0.2662 -0.0091
vn 0.7847 -0.6197 -0.0151
vn 0.3201 -0.9019 0.2901
vn 0.6854 -0.3565 -0.6349
vn 0.9171 -0.0850 0.3896
vn 0.4924 -0.1405 0.8589
vn -0.1158 0.6422 -0.7577
vn 0.0406 -0.4752 -0.8789
vn -0.8773 0.4627 0.1269
vn -0.5979 0.1696 -0.7834
vn 0.5332 0.3486 0.7708
vn -0.2996 0.9019 0.3110
usemtl rock_2
s 1
f 10/1/1 8/2/2 4/3/3
f 19/4/4 11/5/5 21/6/6
f 12/7/7 21/8/6 10/9/1
f 1/10/8 17/11/9 2/12/10
f 14/13/11 20/14/12 13/15/13
f 20/14/12 15/16/14 7/17/15
f 15/18/14 14/19/11 13/20/13
f 3/21/16 1/22/8 6/23/17
f 12/7/7 9/24/18 5/25/19
f 20/14/12 8/26/2 19/4/4
f 4/27/3 16/28/20 17/11/9
f 5/29/19 3/21/16 6/23/17
f 18/30/21 3/31/16 9/24/18
f 19/4/4 21/6/6 6/32/17
f 11/33/5 8/2/2 10/1/1
f 19/4/4 8/26/2 11/5/5
f 11/34/5 10/9/1 21/8/6
f 9/24/18 12/7/7 10/9/1
f 3/35/16 18/36/21 17/11/9
f 6/32/17 13/15/13 20/14/12
f 20/14/12 19/4/4 6/32/17
f 7/17/15 8/26/2 20/14/12
f 20/14/12 14/13/11 15/16/14
f 13/20/13 1/10/8 2/12/10
f 13/20/13 2/12/10 15/18/14
f 7/37/15 16/38/20 8/2/2
f 4/3/3 8/2/2 16/38/20
f 13/39/13 6/23/17 1/22/8
f 2/12/10 17/11/9 16/28/20
f 18/36/21 4/27/3 17/11/9
f 9/24/18 3/31/16 5/25/19
f 18/30/21 9/24/18 4/40/3
f 15/18/14 2/12/10 16/28/20
f 16/28/20 7/41/15 15/18/14
f 4/40/3 9/24/18 10/9/1
f 3/35/16 17/11/9 1/10/8
f 6/23/17 12/42/7 5/29/19
f 12/43/7 6/32/17 21/6/6
