# Blender v2.92.0 OBJ File: 'piedra3.blend'
# www.blender.org
mtllib piedra3.mtl
o rock_3_Cube.018
v -0.298189 -0.024755 0.061563
v 0.560120 0.051244 0.029937
v 0.551070 0.371794 0.120636
v 0.149281 0.034780 0.387870
v -0.025309 0.454633 0.514256
v -0.572286 0.123932 -0.420210
v -0.466527 0.188783 0.187225
v -0.237465 0.473297 -0.262131
v -0.415441 0.262288 -0.548686
v 0.171418 0.176768 -0.598029
v -0.000728 0.435561 -0.528683
v 0.507391 0.467005 0.008733
v -0.158781 0.053456 -0.548033
v -0.384246 -0.029874 -0.326673
v -0.258879 0.423713 0.318465
v 0.257717 0.362405 0.471890
v 0.155728 0.484084 0.402230
v 0.518417 0.155567 -0.280277
v 0.313078 0.043345 -0.484481
v -0.056704 0.296610 0.587815
vt 0.930980 0.945588
vt 0.638591 0.952736
vt 0.977300 0.710448
vt 0.610071 0.452670
vt 0.744650 0.395724
vt 0.641734 0.564733
vt 0.318628 0.303193
vt 0.489769 0.328185
vt 0.552255 0.452907
vt 0.658111 0.792592
vt 0.417803 0.073836
vt 0.623727 0.067608
vt 0.525674 0.131950
vt 0.707200 0.143652
vt 0.141979 0.295989
vt 0.042387 0.294403
vt 0.021519 0.234611
vt 0.560395 0.787930
vt 0.574069 0.883825
vt 0.409279 0.873797
vt 0.323638 0.740242
vt 0.080297 0.792212
vt 0.093629 0.686381
vt 0.931820 0.516605
vt 0.994827 0.572592
vt 0.798702 0.534694
vt 0.167837 0.208495
vt 0.369703 0.250191
vt 0.203688 0.639126
vt 0.120960 0.428376
vt 0.777202 0.634362
vt 0.340041 0.200647
vt 0.396222 0.078983
vt 0.205790 0.984446
vt 0.860847 0.403713
vt 0.559459 0.652825
vt 0.674718 0.725317
vt 0.308887 0.659864
vt 0.739818 0.310224
vt 0.814997 0.249838
vt 0.487192 0.614400
vt 0.952716 0.610922
vt 0.152998 0.060915
vt 0.029278 0.918253
vn 0.6173 0.7800 -0.1022
vn 0.0992 0.7519 -0.6517
vn 0.1891 0.8985 0.3961
vn -0.8932 -0.1792 -0.4125
vn -0.5752 0.2755 -0.7702
vn -0.2819 -0.9378 -0.2024
vn -0.3299 -0.9102 0.2503
vn -0.1119 -0.6934 -0.7118
vn -0.3705 0.9231 -0.1033
vn 0.7669 -0.6213 0.1606
vn 0.4672 -0.6526 -0.5965
vn 0.8674 -0.0402 -0.4960
vn 0.3382 0.0226 -0.9408
vn -0.0690 0.7445 0.6640
vn -0.2173 -0.0950 0.9715
vn -0.5869 0.7288 0.3527
vn -0.8978 -0.0831 0.4324
vn 0.5495 0.2156 0.8071
vn 0.1818 -0.7854 0.5916
vn 0.8864 0.3090 0.3445
usemtl rock_3
s 1
f 12/1/1 11/2/2 17/3/3
f 6/4/4 9/5/5 14/6/6
f 1/7/7 14/8/6 13/9/8
f 11/2/2 8/10/9 17/3/3
f 2/11/10 19/12/11 18/13/12
f 10/14/13 18/13/12 19/12/11
f 17/15/3 5/16/14 20/17/15
f 20/18/15 5/19/14 15/20/16
f 7/21/17 6/22/4 14/23/6
f 10/24/13 19/25/11 13/26/8
f 16/27/18 12/28/1 17/15/3
f 2/29/10 4/30/19 1/7/7
f 8/10/9 15/31/16 17/3/3
f 3/32/20 16/27/18 2/33/10
f 8/34/9 7/21/17 15/20/16
f 9/5/5 11/35/2 10/24/13
f 4/36/19 16/37/18 20/18/15
f 13/26/8 14/6/6 9/5/5
f 1/38/7 4/36/19 7/21/17
f 20/18/15 7/21/17 4/36/19
f 11/39/2 12/28/1 18/13/12
f 18/13/12 10/14/13 11/39/2
f 18/13/12 3/32/20 2/33/10
f 20/17/15 16/27/18 17/15/3
f 11/35/2 9/5/5 8/40/9
f 3/32/20 18/13/12 12/28/1
f 15/20/16 7/21/17 20/18/15
f 14/23/6 1/38/7 7/21/17
f 9/5/5 10/24/13 13/26/8
f 16/27/18 3/32/20 12/28/1
f 1/7/7 19/41/11 2/29/10
f 13/9/8 19/41/11 1/7/7
f 5/42/14 17/3/3 15/31/16
f 2/33/10 16/27/18 4/43/19
f 8/34/9 6/22/4 7/21/17
f 8/34/9 9/44/5 6/22/4
