# Blender v2.92.0 OBJ File: 'piedra.blend'
# www.blender.org
mtllib piedra1.mtl
o rock_1_Plane.002
v 0.019276 -0.001414 0.169564
v 0.167299 0.031965 -0.319745
v 0.281505 0.473385 0.128566
v 0.082720 0.463217 0.142895
v 0.045322 0.433182 -0.324038
v 0.396429 0.425839 0.047960
v 0.401085 0.220672 0.084838
v 0.328113 0.064191 -0.101057
v -0.255049 0.012306 -0.154754
v -0.439548 0.194229 0.069422
v 0.126560 0.101432 0.413545
v -0.224744 0.190873 -0.352381
v 0.100278 0.306156 0.417657
v -0.206072 0.404841 0.276662
v -0.253070 0.089895 0.408372
v 0.146766 0.166638 -0.434135
v -0.320315 0.158317 0.380339
v -0.404318 0.252806 0.268661
v -0.140604 0.485107 -0.248423
vt 0.227037 0.621002
vt 0.433512 0.637018
vt 0.268941 0.788725
vt 0.021926 0.624526
vt 0.253596 0.468492
vt 0.066912 0.758747
vt 0.467334 0.146658
vt 0.137342 0.025888
vt 0.459748 0.045201
vt 0.449998 0.430615
vt 0.744195 0.703056
vt 0.842755 0.883723
vt 0.668236 0.802365
vt 0.751641 0.394242
vt 0.956651 0.502839
vt 0.665601 0.613968
vt 0.481584 0.518326
vt 0.661144 0.283292
vt 0.345701 0.235035
vt 0.053132 0.929205
vt 0.358155 0.965051
vt 0.043880 0.482114
vt 0.115530 0.330110
vt 0.294706 0.421715
vt 0.746808 0.076826
vt 0.778068 0.189026
vt 0.694443 0.055464
vt 0.475292 0.332464
vt 0.952661 0.678386
vt 0.865422 0.687831
vt 0.028504 0.368814
vt 0.029766 0.107338
vt 0.217793 0.253188
vt 0.461409 0.597991
vt 0.887326 0.368784
vt 0.969145 0.976072
vt 0.901621 0.056432
vn 0.4074 -0.4974 0.7659
vn -0.3958 -0.4964 0.7725
vn 0.0872 -0.9821 0.1671
vn 0.9497 -0.1929 0.2465
vn 0.2702 0.4283 0.8623
vn 0.7847 -0.5734 -0.2352
vn -0.8800 0.2522 0.4024
vn -0.3775 0.8213 -0.4277
vn -0.9945 -0.0776 -0.0703
vn -0.3390 0.8037 0.4891
vn 0.2533 0.6730 -0.6949
vn -0.5833 -0.1092 -0.8048
vn 0.8496 0.5264 0.0304
vn 0.3196 -0.7942 -0.5169
vn -0.4912 -0.8187 -0.2974
vn 0.4247 0.8265 0.3695
vn -0.6797 -0.1890 0.7086
vn 0.4062 -0.0503 -0.9124
vn -0.0404 0.9584 0.2825
usemtl rock_1
s 1
f 11/1/1 15/2/2 1/3/3
f 7/4/4 13/5/5 11/1/1
f 11/1/1 1/3/3 8/6/6
f 18/7/7 19/8/8 10/9/9
f 15/2/2 13/5/5 14/10/10
f 5/11/11 12/12/12 19/13/8
f 5/11/11 6/14/13 8/15/6
f 19/16/8 12/17/12 10/18/9
f 19/8/8 18/7/7 14/19/10
f 1/3/3 2/20/14 8/6/6
f 15/2/2 9/21/15 1/3/3
f 11/1/1 13/5/5 15/2/2
f 7/22/4 3/23/16 13/24/5
f 17/25/17 18/26/7 15/27/2
f 9/28/15 10/18/9 12/17/12
f 8/15/6 2/29/14 16/30/18
f 8/6/6 7/4/4 11/1/1
f 6/31/13 5/32/11 3/23/16
f 19/8/8 14/19/10 4/33/19
f 13/24/5 3/23/16 4/33/19
f 8/15/6 16/30/18 5/11/11
f 14/10/10 17/34/17 15/2/2
f 8/15/6 6/14/13 7/35/4
f 16/30/18 12/12/12 5/11/11
f 14/19/10 13/24/5 4/33/19
f 2/29/14 9/36/15 12/12/12
f 1/3/3 9/21/15 2/20/14
f 12/12/12 16/30/18 2/29/14
f 17/25/17 14/37/10 18/26/7
f 7/22/4 6/31/13 3/23/16
f 9/28/15 15/27/2 10/18/9
f 18/26/7 10/18/9 15/27/2
f 19/8/8 4/33/19 3/23/16
f 19/8/8 3/23/16 5/32/11
