# Blender v2.92.0 OBJ File: 'piedra4.blend'
# www.blender.org
mtllib piedra4.mtl
o rock_4_Cube.023
v 0.162934 -0.006653 -0.153095
v 0.137282 0.579546 -0.092677
v -0.228236 0.045117 -0.372677
v -0.049300 0.410860 -0.607916
v -0.409211 0.234956 -0.149291
v 0.382371 0.580117 -0.122094
v 0.234788 0.093910 0.512274
v -0.056477 0.010673 0.217506
v -0.094157 0.149718 -0.583703
v 0.215477 0.398763 -0.604336
v 0.311837 0.638974 -0.568642
v 0.347041 0.104855 0.003452
v 0.217834 0.057421 -0.284679
v 0.332005 0.236814 0.500865
v 0.037101 0.653788 -0.570712
v -0.441717 0.437287 -0.085386
v -0.396479 0.521542 -0.356335
v 0.411158 0.585678 -0.343867
v 0.038630 0.416643 0.438531
v -0.300374 0.597733 -0.326479
v -0.030372 0.480242 0.213954
v -0.051847 0.350498 0.245081
v 0.106804 0.197577 -0.501685
v -0.285607 0.477637 -0.527716
v -0.265633 0.115303 -0.512565
v -0.258662 0.006008 -0.026075
v 0.027850 0.111025 0.355671
v 0.095683 0.255374 0.583521
vt 0.170936 0.198988
vt 0.086163 0.035045
vt 0.484087 0.018855
vt 0.450165 0.133348
vt 0.542220 0.354249
vt 0.446308 0.454545
vt 0.301840 0.195942
vt 0.949529 0.268874
vt 0.924772 0.036479
vt 0.992004 0.166896
vt 0.565571 0.922459
vt 0.453161 0.985808
vt 0.137706 0.891758
vt 0.807046 0.026236
vt 0.752607 0.145330
vt 0.882601 0.424349
vt 0.981073 0.496168
vt 0.742738 0.055265
vt 0.844186 0.667531
vt 0.960710 0.812360
vt 0.821844 0.809439
vt 0.040825 0.711623
vt 0.103905 0.805923
vt 0.018357 0.877687
vt 0.569966 0.702280
vt 0.670243 0.799655
vt 0.239558 0.286332
vt 0.763314 0.316662
vt 0.854056 0.927810
vt 0.325996 0.765935
vt 0.705803 0.786158
vt 0.667582 0.701130
vt 0.334727 0.392266
vt 0.280859 0.557897
vt 0.046152 0.382465
vt 0.692915 0.499805
vt 0.598086 0.638939
vt 0.555842 0.487080
vt 0.401188 0.469622
vt 0.482888 0.602448
vt 0.887533 0.489154
vt 0.194639 0.323739
vt 0.786661 0.466068
vt 0.848259 0.563844
vt 0.077210 0.174217
vt 0.716005 0.896979
vt 0.677098 0.934162
vt 0.700742 0.061127
vt 0.312237 0.665444
vt 0.464366 0.680104
vt 0.703759 0.205737
vt 0.678705 0.394740
vt 0.025193 0.494977
vt 0.384387 0.633821
vt 0.583687 0.428013
vt 0.989016 0.949674
vt 0.646473 0.026273
vn -0.4050 0.6743 0.6174
vn 0.7800 0.1234 0.6135
vn 0.6480 0.7246 0.2345
vn -0.0163 0.9740 0.2260
vn -0.3947 0.9181 -0.0354
vn -0.8871 0.2752 0.3704
vn -0.4131 0.7765 0.4757
vn 0.2595 -0.9533 -0.1545
vn 0.4391 -0.5981 -0.6704
vn 0.4596 -0.7436 -0.4855
vn 0.9100 0.3797 -0.1666
vn 0.0861 -0.5618 -0.8228
vn -0.3375 -0.9016 -0.2705
vn -0.4472 -0.7511 0.4857
vn 0.2687 -0.7246 0.6346
vn -0.5660 -0.5528 -0.6116
vn -0.5979 0.2968 -0.7446
vn -0.1009 0.8004 -0.5909
vn -0.0995 -0.0080 -0.9950
vn -0.7427 -0.3260 0.5849
vn -0.3409 0.0786 0.9368
vn 0.4852 -0.3324 -0.8087
vn -0.8179 0.0683 0.5712
vn -0.6007 -0.7553 0.2621
vn 0.8341 -0.5509 -0.0260
vn -0.9494 -0.2924 0.1146
vn -0.8644 0.4113 -0.2891
vn 0.5510 0.5891 -0.5910
usemtl rock_4
s 1
f 19/1/1 14/2/2 6/3/3
f 2/4/4 19/1/1 6/3/3
f 20/5/5 16/6/6 21/7/7
f 1/8/8 23/9/9 13/10/10
f 18/11/11 6/12/3 14/13/2
f 9/14/12 23/9/9 3/15/13
f 8/16/14 1/8/8 7/17/15
f 25/18/16 9/14/12 3/15/13
f 24/19/17 15/20/18 4/21/19
f 27/22/20 7/23/15 28/24/21
f 23/25/9 10/26/22 18/11/11
f 21/7/7 16/6/6 22/27/23
f 26/28/24 3/15/13 1/8/8
f 15/20/18 10/29/22 4/21/19
f 7/23/15 12/30/25 14/13/2
f 24/19/17 9/31/12 25/32/16
f 8/33/14 22/34/23 5/35/26
f 5/36/26 3/37/13 26/38/24
f 27/39/20 28/40/21 22/34/23
f 27/41/20 8/16/14 7/17/15
f 26/42/24 8/33/14 5/35/26
f 25/32/16 5/36/26 16/43/6
f 16/43/6 17/44/27 25/32/16
f 28/45/21 14/2/2 19/1/1
f 9/31/12 4/21/19 23/46/9
f 11/47/28 18/11/11 10/26/22
f 2/4/4 6/3/3 11/48/28
f 18/11/11 14/13/2 12/30/25
f 1/49/8 13/50/10 12/30/25
f 1/8/8 3/15/13 23/9/9
f 20/5/5 15/51/18 24/52/17
f 22/34/23 16/53/6 5/35/26
f 20/5/5 21/7/7 2/4/4
f 22/34/23 28/40/21 19/54/1
f 23/46/9 4/21/19 10/29/22
f 25/32/16 17/44/27 24/19/17
f 18/11/11 12/30/25 13/50/10
f 13/50/10 23/25/9 18/11/11
f 17/55/27 16/6/6 20/5/5
f 11/48/28 15/51/18 2/4/4
f 19/1/1 21/7/7 22/27/23
f 15/51/18 20/5/5 2/4/4
f 11/56/28 10/29/22 15/20/18
f 14/13/2 28/24/21 7/23/15
f 18/57/11 11/48/28 6/3/3
f 7/23/15 1/49/8 12/30/25
f 24/19/17 4/21/19 9/31/12
f 8/33/14 27/39/20 22/34/23
f 20/5/5 24/52/17 17/55/27
f 21/7/7 19/1/1 2/4/4
f 5/36/26 25/32/16 3/37/13
f 26/28/24 1/8/8 8/16/14
