# Blender v2.92.0 OBJ File: 'termostato.blend'
# www.blender.org
mtllib termostato.mtl
o panel_thermostat_Cube
v 0.175748 0.001569 -0.033613
v 0.134451 0.042867 0.033613
v -0.134451 0.042867 0.033613
v -0.175748 0.001569 -0.033613
v 0.175748 0.353066 -0.033613
v 0.134451 0.311769 0.033613
v -0.134451 0.311769 0.033613
v -0.175748 0.353066 -0.033613
vt 0.999999 0.000000
vt 0.882509 0.117491
vt 0.117490 0.117491
vt 0.000000 0.000000
vt 1.000000 1.000000
vt 0.000000 1.000000
vt 0.117490 0.882509
vt 0.882509 0.882509
vn -0.0000 -0.8521 0.5234
vn -0.0000 0.8521 0.5234
vn 0.8521 -0.0000 0.5234
vn -0.0000 -0.0000 1.0000
vn -0.8521 -0.0000 0.5234
vn 0.0000 0.0000 -1.0000
usemtl Material
s off
f 1/1/1 2/2/1 3/3/1 4/4/1
f 5/5/2 8/6/2 7/7/2 6/8/2
f 1/1/3 5/5/3 6/8/3 2/2/3
f 2/2/4 6/8/4 7/7/4 3/3/4
f 3/3/5 7/7/5 8/6/5 4/4/5
f 5/5/6 1/1/6 4/4/6 8/6/6
