# Blender v2.92.0 OBJ File: 'toxic.blend'
# www.blender.org
mtllib toxic.mtl
o sign_chemical_rusty_Cube
v 0.000000 1.814878 0.009449
v 0.342111 2.156989 0.009449
v 0.342111 2.156989 0.029246
v 0.000000 1.814878 0.029246
v -0.342111 2.156989 0.029246
v 0.000000 2.499100 0.029246
v 0.000000 2.499100 0.009449
v -0.342111 2.156989 0.009449
vt 0.500000 0.028309
vt 0.971691 0.500000
vt 0.943484 0.500000
vt 0.500000 0.056516
vt 0.021159 0.485886
vt 0.490929 0.016116
vt 0.960699 0.485886
vt 0.490929 0.955655
vt 0.500000 0.943484
vt 0.500000 0.971691
vt 0.028309 0.500000
vt 0.056516 0.500000
vt 0.500000 0.992805
vt 0.007195 0.500000
vt 0.500000 0.007195
vt 0.992805 0.500000
vn 0.7071 -0.7071 0.0000
vn 0.0000 -0.0000 1.0000
vn 0.7071 0.7071 0.0000
vn -0.7071 0.7071 0.0000
vn -0.7071 -0.7071 0.0000
vn 0.0000 0.0000 -1.0000
usemtl sign_chemical_rusty
s 1
f 1/1/1 2/2/1 3/3/1 4/4/1
f 5/5/2 4/6/2 3/7/2 6/8/2
f 6/9/3 3/3/3 2/2/3 7/10/3
f 7/10/4 8/11/4 5/12/4 6/9/4
f 8/11/5 1/1/5 4/4/5 5/12/5
f 7/13/6 2/14/6 1/15/6 8/16/6
o signpost_silver_Plane
v -0.041869 2.675445 -0.009296
v 0.041869 2.675445 -0.009296
v -0.041869 -0.000106 -0.009296
v 0.041869 -0.000106 -0.009296
v -0.013956 2.675445 0.009296
v 0.013956 2.675445 0.009296
v 0.013956 -0.000106 0.009296
v -0.013956 -0.000106 0.009296
vt 0.769875 20.992496
vt 1.000000 20.992496
vt 1.000000 -19.992496
vt 0.769875 -19.992496
vt 0.000000 20.992496
vt 0.230125 20.992496
vt 0.230125 -19.992496
vt 0.000000 -19.992496
vn -0.5544 -0.0000 -0.8323
vn 0.5544 -0.0000 -0.8323
vn 0.0000 -0.0000 -1.0000
usemtl signpost_silver
s off
f 14/17/7 10/18/7 12/19/7 15/20/7
f 9/21/8 13/22/8 16/23/8 11/24/8
f 13/22/9 14/17/9 15/20/9 16/23/9
