# Blender v2.92.0 OBJ File: ''
# www.blender.org
mtllib spawn.mtl
o rock_4_Cube.023
v -0.395362 0.603613 0.150811
v -0.693295 0.423784 0.116304
v -0.684934 0.767087 0.741240
v -0.443691 0.766516 0.688936
v 0.013987 0.784703 0.880603
v 0.132064 0.624257 0.627302
v -0.305575 0.667212 0.367915
v -0.463556 0.180317 0.751496
v -0.374937 0.384547 1.093274
v -0.505856 0.244391 0.887654
v -0.692767 0.772648 0.964736
v -0.167162 0.336688 1.156057
v -0.053493 0.232087 0.933372
v -0.279919 0.197643 0.361927
v -0.597579 0.280880 0.095815
v -0.003124 0.302273 1.069129
v 0.018184 0.664607 1.082338
v -0.299060 0.840758 1.155450
v -0.209547 0.597830 1.184375
v -0.376848 0.297995 0.232292
v -0.465779 0.442344 0.011820
v -0.473490 0.585733 1.205677
v -0.287118 0.537468 0.334909
v -0.055752 0.192978 0.585444
v -0.661551 0.291825 0.612931
v 0.105703 0.421926 0.693977
v 0.112472 0.708512 0.901302
v -0.572776 0.825944 1.179190
vt 0.170936 0.198988
vt 0.086163 0.035045
vt 0.484087 0.018855
vt 0.450165 0.133348
vt 0.542220 0.354249
vt 0.446308 0.454545
vt 0.301840 0.195942
vt 0.949529 0.268874
vt 0.924772 0.036479
vt 0.992004 0.166896
vt 0.565571 0.922459
vt 0.453161 0.985808
vt 0.137706 0.891758
vt 0.807046 0.026236
vt 0.752607 0.145330
vt 0.882601 0.424349
vt 0.981073 0.496168
vt 0.742738 0.055265
vt 0.844186 0.667531
vt 0.960710 0.812360
vt 0.821844 0.809439
vt 0.040825 0.711623
vt 0.103905 0.805923
vt 0.018357 0.877687
vt 0.569966 0.702280
vt 0.670243 0.799655
vt 0.239558 0.286332
vt 0.763314 0.316662
vt 0.854056 0.927810
vt 0.325996 0.765935
vt 0.705803 0.786158
vt 0.667582 0.701130
vt 0.334727 0.392266
vt 0.280859 0.557897
vt 0.046152 0.382465
vt 0.692915 0.499805
vt 0.598086 0.638939
vt 0.555842 0.487080
vt 0.401188 0.469622
vt 0.482888 0.602448
vt 0.887533 0.489154
vt 0.194639 0.323739
vt 0.786661 0.466068
vt 0.848259 0.563844
vt 0.077210 0.174217
vt 0.716005 0.896979
vt 0.677098 0.934162
vt 0.700742 0.061127
vt 0.312237 0.665444
vt 0.464366 0.680104
vt 0.703759 0.205737
vt 0.678705 0.394740
vt 0.025193 0.494977
vt 0.384387 0.633821
vt 0.583687 0.428013
vt 0.989016 0.949674
vt 0.646473 0.026273
vn 0.3452 0.6743 -0.6528
vn -0.8342 0.1234 -0.5375
vn -0.6672 0.7246 -0.1726
vn -0.0050 0.9740 -0.2266
vn 0.3963 0.9181 -0.0018
vn 0.8485 0.2752 -0.4521
vn 0.3666 0.7766 -0.5124
vn -0.2439 -0.9533 0.1781
vn -0.3742 -0.5981 0.7087
vn -0.4120 -0.7436 0.5266
vn -0.8903 0.3797 0.2513
vn -0.0084 -0.5618 0.8273
vn 0.3614 -0.9016 0.2376
vn 0.3997 -0.7511 -0.5255
vn -0.3271 -0.7246 -0.6066
vn 0.6209 -0.5528 0.5558
vn 0.6652 0.2968 0.6851
vn 0.1559 0.8004 0.5789
vn 0.1925 -0.0081 0.9813
vn 0.6845 -0.3260 -0.6520
vn 0.2514 0.0786 -0.9647
vn -0.4072 -0.3324 0.8507
vn 0.7607 0.0683 -0.6455
vn 0.5735 -0.7553 -0.3173
vn -0.8280 -0.5509 0.1042
vn 0.9344 -0.2924 -0.2032
vn 0.8878 0.4113 0.2067
vn -0.4931 0.5891 0.6401
usemtl rock_4
s 1
f 1/1/1 2/2/2 3/3/3
f 4/4/4 1/1/1 3/3/3
f 5/5/5 6/6/6 7/7/7
f 8/8/8 9/9/9 10/10/10
f 11/11/11 3/12/3 2/13/2
f 12/14/12 9/9/9 13/15/13
f 14/16/14 8/8/8 15/17/15
f 16/18/16 12/14/12 13/15/13
f 17/19/17 18/20/18 19/21/19
f 20/22/20 15/23/15 21/24/21
f 9/25/9 22/26/22 11/11/11
f 7/7/7 6/6/6 23/27/23
f 24/28/24 13/15/13 8/8/8
f 18/20/18 22/29/22 19/21/19
f 15/23/15 25/30/25 2/13/2
f 17/19/17 12/31/12 16/32/16
f 14/33/14 23/34/23 26/35/26
f 26/36/26 13/37/13 24/38/24
f 20/39/20 21/40/21 23/34/23
f 20/41/20 14/16/14 15/17/15
f 24/42/24 14/33/14 26/35/26
f 16/32/16 26/36/26 6/43/6
f 6/43/6 27/44/27 16/32/16
f 21/45/21 2/2/2 1/1/1
f 12/31/12 19/21/19 9/46/9
f 28/47/28 11/11/11 22/26/22
f 4/4/4 3/3/3 28/48/28
f 11/11/11 2/13/2 25/30/25
f 8/49/8 10/50/10 25/30/25
f 8/8/8 13/15/13 9/9/9
f 5/5/5 18/51/18 17/52/17
f 23/34/23 6/53/6 26/35/26
f 5/5/5 7/7/7 4/4/4
f 23/34/23 21/40/21 1/54/1
f 9/46/9 19/21/19 22/29/22
f 16/32/16 27/44/27 17/19/17
f 11/11/11 25/30/25 10/50/10
f 10/50/10 9/25/9 11/11/11
f 27/55/27 6/6/6 5/5/5
f 28/48/28 18/51/18 4/4/4
f 1/1/1 7/7/7 23/27/23
f 18/51/18 5/5/5 4/4/4
f 28/56/28 22/29/22 18/20/18
f 2/13/2 21/24/21 15/23/15
f 11/57/11 28/48/28 3/3/3
f 15/23/15 8/49/8 25/30/25
f 17/19/17 19/21/19 12/31/12
f 14/33/14 20/39/20 23/34/23
f 5/5/5 17/52/17 27/55/27
f 7/7/7 1/1/1 4/4/4
f 26/36/26 16/32/16 13/37/13
f 24/28/24 8/8/8 14/16/14
o rock_4_Cube.001
v 0.168099 0.582436 0.402754
v 0.357397 0.402607 0.635393
v 0.787548 0.745910 0.181979
v 0.578267 0.745339 0.051076
v 0.384240 0.763527 -0.405607
v 0.122896 0.603081 -0.306597
v 0.255309 0.646035 0.184601
v 0.636154 0.159141 0.020134
v 0.811210 0.363371 -0.286494
v 0.761473 0.223215 -0.047862
v 0.949134 0.751472 0.027376
v 0.706217 0.315512 -0.476464
v 0.469397 0.210911 -0.396306
v 0.232755 0.176466 0.170984
v 0.274546 0.259703 0.583267
v 0.528067 0.281097 -0.528688
v 0.522024 0.643431 -0.553019
v 0.800259 0.819582 -0.383979
v 0.756336 0.576654 -0.467166
v 0.211705 0.276818 0.331476
v 0.121531 0.421167 0.551443
v 0.960239 0.564557 -0.298218
v 0.219055 0.516291 0.195359
v 0.228198 0.171801 -0.145543
v 0.681254 0.270648 0.257554
v 0.188308 0.400750 -0.335953
v 0.328151 0.687336 -0.489163
v 1.012863 0.804768 -0.209957
vt 0.170936 0.198988
vt 0.086163 0.035045
vt 0.484087 0.018855
vt 0.450165 0.133348
vt 0.542220 0.354249
vt 0.446308 0.454545
vt 0.301840 0.195942
vt 0.949529 0.268874
vt 0.924772 0.036479
vt 0.992004 0.166896
vt 0.565571 0.922459
vt 0.453161 0.985808
vt 0.137706 0.891758
vt 0.807046 0.026236
vt 0.752607 0.145330
vt 0.882601 0.424349
vt 0.981073 0.496168
vt 0.742738 0.055265
vt 0.844186 0.667531
vt 0.960710 0.812360
vt 0.821844 0.809439
vt 0.040825 0.711623
vt 0.103905 0.805923
vt 0.018357 0.877687
vt 0.569966 0.702280
vt 0.670243 0.799655
vt 0.239558 0.286332
vt 0.763314 0.316662
vt 0.854056 0.927810
vt 0.325996 0.765935
vt 0.705803 0.786158
vt 0.667582 0.701130
vt 0.334727 0.392266
vt 0.280859 0.557897
vt 0.046152 0.382465
vt 0.692915 0.499805
vt 0.598086 0.638939
vt 0.555842 0.487080
vt 0.401188 0.469622
vt 0.482888 0.602448
vt 0.887533 0.489154
vt 0.194639 0.323739
vt 0.786661 0.466068
vt 0.848259 0.563844
vt 0.077210 0.174217
vt 0.716005 0.896979
vt 0.677098 0.934162
vt 0.700742 0.061127
vt 0.312237 0.665444
vt 0.464366 0.680104
vt 0.703759 0.205737
vt 0.678705 0.394740
vt 0.025193 0.494977
vt 0.384387 0.633821
vt 0.583687 0.428013
vt 0.989016 0.949674
vt 0.646473 0.026273
vn -0.7028 0.6743 0.2266
vn 0.2223 0.1234 0.9671
vn 0.3574 0.7246 0.5893
vn -0.1545 0.9740 0.1657
vn -0.2851 0.9181 -0.2753
vn -0.9232 0.2752 -0.2684
vn -0.6202 0.7766 0.1111
vn 0.2990 -0.9533 0.0426
vn 0.7626 -0.5981 -0.2465
vn 0.6626 -0.7436 -0.0896
vn 0.8130 0.3797 0.4414
vn 0.5834 -0.5618 -0.5866
vn -0.0930 -0.9016 -0.4224
vn -0.6530 -0.7511 0.0975
vn -0.1890 -0.7246 0.6627
vn -0.0568 -0.5528 -0.8314
vn 0.0017 0.2968 -0.9549
vn 0.2923 0.8004 -0.5234
vn 0.5469 -0.0081 -0.8371
vn -0.9453 -0.3260 -0.0107
vn -0.8533 0.0786 0.5155
vn 0.8853 -0.3324 -0.3251
vn -0.9953 0.0683 -0.0685
vn -0.6322 -0.7553 -0.1729
vn 0.6658 -0.5509 0.5032
vn -0.8111 -0.2924 -0.5066
vn -0.4916 0.4113 -0.7676
vn 0.7999 0.5891 -0.1143
usemtl rock_4.001
s 1
f 29/58/29 30/59/30 31/60/31
f 32/61/32 29/58/29 31/60/31
f 33/62/33 34/63/34 35/64/35
f 36/65/36 37/66/37 38/67/38
f 39/68/39 31/69/31 30/70/30
f 40/71/40 37/66/37 41/72/41
f 42/73/42 36/65/36 43/74/43
f 44/75/44 40/71/40 41/72/41
f 45/76/45 46/77/46 47/78/47
f 48/79/48 43/80/43 49/81/49
f 37/82/37 50/83/50 39/68/39
f 35/64/35 34/63/34 51/84/51
f 52/85/52 41/72/41 36/65/36
f 46/77/46 50/86/50 47/78/47
f 43/80/43 53/87/53 30/70/30
f 45/76/45 40/88/40 44/89/44
f 42/90/42 51/91/51 54/92/54
f 54/93/54 41/94/41 52/95/52
f 48/96/48 49/97/49 51/91/51
f 48/98/48 42/73/42 43/74/43
f 52/99/52 42/90/42 54/92/54
f 44/89/44 54/93/54 34/100/34
f 34/100/34 55/101/55 44/89/44
f 49/102/49 30/59/30 29/58/29
f 40/88/40 47/78/47 37/103/37
f 56/104/56 39/68/39 50/83/50
f 32/61/32 31/60/31 56/105/56
f 39/68/39 30/70/30 53/87/53
f 36/106/36 38/107/38 53/87/53
f 36/65/36 41/72/41 37/66/37
f 33/62/33 46/108/46 45/109/45
f 51/91/51 34/110/34 54/92/54
f 33/62/33 35/64/35 32/61/32
f 51/91/51 49/97/49 29/111/29
f 37/103/37 47/78/47 50/86/50
f 44/89/44 55/101/55 45/76/45
f 39/68/39 53/87/53 38/107/38
f 38/107/38 37/82/37 39/68/39
f 55/112/55 34/63/34 33/62/33
f 56/105/56 46/108/46 32/61/32
f 29/58/29 35/64/35 51/84/51
f 46/108/46 33/62/33 32/61/32
f 56/113/56 50/86/50 46/77/46
f 30/70/30 49/81/49 43/80/43
f 39/114/39 56/105/56 31/60/31
f 43/80/43 36/106/36 53/87/53
f 45/76/45 47/78/47 40/88/40
f 42/90/42 48/96/48 51/91/51
f 33/62/33 45/109/45 55/112/55
f 35/64/35 29/58/29 32/61/32
f 54/93/54 44/89/44 41/94/41
f 52/85/52 36/65/36 42/73/42
o rock_4_Cube.002
v 0.065066 0.620293 -0.372147
v 0.118418 0.426031 -0.657994
v -0.530867 0.720079 -0.678888
v -0.482950 0.738073 -0.437404
v -0.683518 0.768993 0.015756
v -0.420878 0.635932 0.146758
v -0.157802 0.672283 -0.289274
v -0.500385 0.148669 -0.422033
v -0.858221 0.330946 -0.350591
v -0.640252 0.199404 -0.469961
v -0.753965 0.707934 -0.689960
v -0.920850 0.291002 -0.141104
v -0.692902 0.210896 -0.018331
v -0.116575 0.206970 -0.234744
v 0.148018 0.291156 -0.553421
v -0.834475 0.273329 0.025857
v -0.875577 0.634194 0.024692
v -0.956246 0.784757 -0.303700
v -0.968193 0.546159 -0.199817
v 0.006748 0.310982 -0.335957
v 0.217144 0.466255 -0.430706
v -0.983837 0.516576 -0.462774
v -0.115356 0.546814 -0.262453
v -0.343023 0.198626 -0.013647
v -0.367218 0.258381 -0.624681
v -0.471495 0.427849 0.132010
v -0.700102 0.697508 0.118456
v -0.973942 0.751693 -0.576275
vt 0.170936 0.198988
vt 0.086163 0.035045
vt 0.484087 0.018855
vt 0.450165 0.133348
vt 0.542220 0.354249
vt 0.446308 0.454545
vt 0.301840 0.195942
vt 0.949529 0.268874
vt 0.924772 0.036479
vt 0.992004 0.166896
vt 0.565571 0.922459
vt 0.453161 0.985808
vt 0.137706 0.891758
vt 0.807046 0.026236
vt 0.752607 0.145330
vt 0.882601 0.424349
vt 0.981073 0.496168
vt 0.742738 0.055265
vt 0.844186 0.667531
vt 0.960710 0.812360
vt 0.821844 0.809439
vt 0.040825 0.711623
vt 0.103905 0.805923
vt 0.018357 0.877687
vt 0.569966 0.702280
vt 0.670243 0.799655
vt 0.239558 0.286332
vt 0.763314 0.316662
vt 0.854056 0.927810
vt 0.325996 0.765935
vt 0.705803 0.786158
vt 0.667582 0.701130
vt 0.334727 0.392266
vt 0.280859 0.557897
vt 0.046152 0.382465
vt 0.692915 0.499805
vt 0.598086 0.638939
vt 0.555842 0.487080
vt 0.401188 0.469622
vt 0.482888 0.602448
vt 0.887533 0.489154
vt 0.194639 0.323739
vt 0.786661 0.466068
vt 0.848259 0.563844
vt 0.077210 0.174217
vt 0.716005 0.896979
vt 0.677098 0.934162
vt 0.700742 0.061127
vt 0.312237 0.665444
vt 0.464366 0.680104
vt 0.703759 0.205737
vt 0.678705 0.394740
vt 0.025193 0.494977
vt 0.384387 0.633821
vt 0.583687 0.428013
vt 0.989016 0.949674
vt 0.646473 0.026273
vn 0.5934 0.7422 0.3116
vn 0.5412 0.1139 -0.8331
vn 0.1288 0.6942 -0.7081
vn 0.1519 0.9865 -0.0619
vn -0.0750 0.9377 0.3391
vn 0.4148 0.3598 0.8358
vn 0.4452 0.8344 0.3249
vn -0.1008 -0.9772 -0.1871
vn -0.6544 -0.6723 -0.3459
vn -0.4611 -0.8054 -0.3723
vn -0.2637 0.3049 -0.9152
vn -0.7819 -0.6233 0.0153
vn -0.1747 -0.8938 0.4130
vn 0.5740 -0.6829 0.4519
vn 0.6656 -0.6941 -0.2741
vn -0.5230 -0.5555 0.6464
vn -0.7174 0.2827 0.6368
vn -0.6407 0.7614 0.0989
vn -0.9811 -0.0720 0.1799
vn 0.6627 -0.2330 0.7117
vn 0.9513 0.1676 0.2587
vn -0.8156 -0.4209 -0.3970
vn 0.6249 0.1636 0.7634
vn 0.3637 -0.6927 0.6229
vn -0.0473 -0.6062 -0.7939
vn 0.2083 -0.2191 0.9532
vn -0.2530 0.4469 0.8580
vn -0.6743 0.5073 -0.5367
usemtl rock_4.002
s 1
f 57/115/57 58/116/58 59/117/59
f 60/118/60 57/115/57 59/117/59
f 61/119/61 62/120/62 63/121/63
f 64/122/64 65/123/65 66/124/66
f 67/125/67 59/126/59 58/127/58
f 68/128/68 65/123/65 69/129/69
f 70/130/70 64/122/64 71/131/71
f 72/132/72 68/128/68 69/129/69
f 73/133/73 74/134/74 75/135/75
f 76/136/76 71/137/71 77/138/77
f 65/139/65 78/140/78 67/125/67
f 63/121/63 62/120/62 79/141/79
f 80/142/80 69/129/69 64/122/64
f 74/134/74 78/143/78 75/135/75
f 71/137/71 81/144/81 58/127/58
f 73/133/73 68/145/68 72/146/72
f 70/147/70 79/148/79 82/149/82
f 82/150/82 69/151/69 80/152/80
f 76/153/76 77/154/77 79/148/79
f 76/155/76 70/130/70 71/131/71
f 80/156/80 70/147/70 82/149/82
f 72/146/72 82/150/82 62/157/62
f 62/157/62 83/158/83 72/146/72
f 77/159/77 58/116/58 57/115/57
f 68/145/68 75/135/75 65/160/65
f 84/161/84 67/125/67 78/140/78
f 60/118/60 59/117/59 84/162/84
f 67/125/67 58/127/58 81/144/81
f 64/163/64 66/164/66 81/144/81
f 64/122/64 69/129/69 65/123/65
f 61/119/61 74/165/74 73/166/73
f 79/148/79 62/167/62 82/149/82
f 61/119/61 63/121/63 60/118/60
f 79/148/79 77/154/77 57/168/57
f 65/160/65 75/135/75 78/143/78
f 72/146/72 83/158/83 73/133/73
f 67/125/67 81/144/81 66/164/66
f 66/164/66 65/139/65 67/125/67
f 83/169/83 62/120/62 61/119/61
f 84/162/84 74/165/74 60/118/60
f 57/115/57 63/121/63 79/141/79
f 74/165/74 61/119/61 60/118/60
f 84/170/84 78/143/78 74/134/74
f 58/127/58 77/138/77 71/137/71
f 67/171/67 84/162/84 59/117/59
f 71/137/71 64/163/64 81/144/81
f 73/133/73 75/135/75 68/145/68
f 70/147/70 76/153/76 79/148/79
f 61/119/61 73/166/73 83/169/83
f 63/121/63 57/115/57 60/118/60
f 82/150/82 72/146/72 69/151/69
f 80/142/80 64/122/64 70/130/70
